<?xml version="1.0" encoding="UTF-8"?>
<svg version="1.1" xmlns="http://www.w3.org/2000/svg" width="461" height="582">
<path d="M0 0 C18.96872783 -0.46936934 37.93384786 1.17315383 56.67675781 4.06201172 C58.07474609 4.25730469 58.07474609 4.25730469 59.50097656 4.45654297 C65.6441357 5.41613133 71.38569036 7.2030044 77.24414062 9.23608398 C82.02404676 10.88711139 86.72404791 12.07146974 91.67675781 13.06201172 C92.66675781 13.39201172 93.65675781 13.72201172 94.67675781 14.06201172 C94.67675781 14.72201172 94.67675781 15.38201172 94.67675781 16.06201172 C95.3921875 16.19478516 96.10761719 16.32755859 96.84472656 16.46435547 C99.61864103 17.04974707 102.27975056 17.79359616 104.98925781 18.62451172 C106.31376953 19.02863281 106.31376953 19.02863281 107.66503906 19.44091797 C108.32890625 19.64587891 108.99277344 19.85083984 109.67675781 20.06201172 C109.67675781 20.72201172 109.67675781 21.38201172 109.67675781 22.06201172 C110.85238281 22.40232422 110.85238281 22.40232422 112.05175781 22.74951172 C116.80459124 24.4703652 121.18622909 26.75476153 125.67675781 29.06201172 C127.21742922 29.83483237 128.75899854 30.60586747 130.30175781 31.37451172 C131.41550781 31.93138672 132.52925781 32.48826172 133.67675781 33.06201172 C133.67675781 33.72201172 133.67675781 34.38201172 133.67675781 35.06201172 C136.32904593 36.13726366 138.96044235 37.15657323 141.67675781 38.06201172 C142.10988281 38.51576172 142.54300781 38.96951172 142.98925781 39.43701172 C145.2640035 41.62750757 147.83321805 42.73502649 150.67675781 44.06201172 C150.67675781 44.72201172 150.67675781 45.38201172 150.67675781 46.06201172 C151.66675781 46.06201172 152.65675781 46.06201172 153.67675781 46.06201172 C154.00675781 46.72201172 154.33675781 47.38201172 154.67675781 48.06201172 C155.48113281 48.53638672 156.28550781 49.01076172 157.11425781 49.49951172 C159.67675781 51.06201172 159.67675781 51.06201172 161.67675781 54.06201172 C163.33623929 55.07389067 165.00256343 56.07466631 166.67675781 57.06201172 C167.00675781 57.72201172 167.33675781 58.38201172 167.67675781 59.06201172 C169.69345609 60.19551706 169.69345609 60.19551706 171.67675781 61.06201172 C171.67675781 61.72201172 171.67675781 62.38201172 171.67675781 63.06201172 C172.31613281 63.33013672 172.95550781 63.59826172 173.61425781 63.87451172 C175.67675781 65.06201172 175.67675781 65.06201172 176.67675781 68.06201172 C177.66675781 68.39201172 178.65675781 68.72201172 179.67675781 69.06201172 C181.36425781 70.49951172 181.36425781 70.49951172 182.67675781 72.06201172 C182.67675781 72.72201172 182.67675781 73.38201172 182.67675781 74.06201172 C183.66675781 74.39201172 184.65675781 74.72201172 185.67675781 75.06201172 C185.67675781 75.72201172 185.67675781 76.38201172 185.67675781 77.06201172 C186.33675781 77.06201172 186.99675781 77.06201172 187.67675781 77.06201172 C188.68318532 78.72480499 189.68261189 80.39184656 190.67675781 82.06201172 C191.66675781 82.72201172 192.65675781 83.38201172 193.67675781 84.06201172 C194.34342448 85.39534505 195.01009115 86.72867839 195.67675781 88.06201172 C196.66675781 88.72201172 197.65675781 89.38201172 198.67675781 90.06201172 C199.69298439 92.05381581 200.69388773 94.05353807 201.67675781 96.06201172 C202.33675781 96.39201172 202.99675781 96.72201172 203.67675781 97.06201172 C203.67675781 98.05201172 203.67675781 99.04201172 203.67675781 100.06201172 C204.33675781 100.06201172 204.99675781 100.06201172 205.67675781 100.06201172 C206.00675781 101.71201172 206.33675781 103.36201172 206.67675781 105.06201172 C207.33675781 105.06201172 207.99675781 105.06201172 208.67675781 105.06201172 C209.00675781 106.71201172 209.33675781 108.36201172 209.67675781 110.06201172 C210.33675781 110.06201172 210.99675781 110.06201172 211.67675781 110.06201172 C214.29264285 113.61961536 215.17033589 116.70678319 215.67675781 121.06201172 C216.33675781 121.06201172 216.99675781 121.06201172 217.67675781 121.06201172 C218.33675781 123.70201172 218.99675781 126.34201172 219.67675781 129.06201172 C220.33675781 129.06201172 220.99675781 129.06201172 221.67675781 129.06201172 C221.67675781 130.38201172 221.67675781 131.70201172 221.67675781 133.06201172 C222.33675781 133.06201172 222.99675781 133.06201172 223.67675781 133.06201172 C223.94488281 134.05201172 224.21300781 135.04201172 224.48925781 136.06201172 C225.23943326 138.70161545 226.0990803 141.16285786 227.08691406 143.73779297 C228.7670582 148.17263384 230.0595566 152.67560416 231.30175781 157.24951172 C231.62660156 158.42030273 231.62660156 158.42030273 231.95800781 159.61474609 C239.74643326 187.95596091 240.32524272 218.69986964 226.67675781 245.06201172 C225.90478467 246.68647055 225.1336983 248.31135174 224.36425781 249.93701172 C222.67675781 253.06201172 222.67675781 253.06201172 220.67675781 254.06201172 C220.34675781 255.05201172 220.01675781 256.04201172 219.67675781 257.06201172 C218.39016618 258.44050275 217.04762696 259.76730197 215.67675781 261.06201172 C214.97550781 261.78388672 214.27425781 262.50576172 213.55175781 263.24951172 C210.95846866 265.8266433 208.29596053 268.32720348 205.61425781 270.81201172 C204.77765625 271.59060547 203.94105469 272.36919922 203.07910156 273.17138672 C200.80863659 274.95822419 199.49339096 275.67171613 196.67675781 276.06201172 C196.67675781 277.05201172 196.67675781 278.04201172 196.67675781 279.06201172 C197.27488281 279.20638672 197.87300781 279.35076172 198.48925781 279.49951172 C203.82407677 280.87132231 205.56094467 283.07767979 208.95800781 287.24951172 C210.64446906 289.31280078 210.64446906 289.31280078 213.67675781 290.06201172 C214.7202562 291.7017949 215.70857789 293.37666148 216.67675781 295.06201172 C218.24596782 297.16233896 219.84977783 299.23108585 221.46972656 301.29248047 C222.67675781 303.06201172 222.67675781 303.06201172 222.67675781 305.06201172 C223.33675781 305.06201172 223.99675781 305.06201172 224.67675781 305.06201172 C225.00675781 306.71201172 225.33675781 308.36201172 225.67675781 310.06201172 C226.33675781 310.06201172 226.99675781 310.06201172 227.67675781 310.06201172 C228.18291079 311.33040697 228.6814488 312.60184273 229.17675781 313.87451172 C229.59441406 314.93605469 229.59441406 314.93605469 230.02050781 316.01904297 C230.67675781 318.06201172 230.67675781 318.06201172 230.67675781 321.06201172 C231.33675781 321.06201172 231.99675781 321.06201172 232.67675781 321.06201172 C232.80050781 321.84576172 232.92425781 322.62951172 233.05175781 323.43701172 C233.96818745 328.7523036 234.98463486 334.05934298 236.19628906 339.31591797 C241.37784396 368.93082114 234.01283901 398.48073693 223.67675781 426.06201172 C223.38704102 426.83722168 223.09732422 427.61243164 222.79882812 428.41113281 C222.09338765 430.29547763 221.38535807 432.17885285 220.67675781 434.06201172 C220.01675781 434.06201172 219.35675781 434.06201172 218.67675781 434.06201172 C218.43183594 435.04298828 218.18691406 436.02396484 217.93457031 437.03466797 C216.66832076 441.46654141 214.66489842 445.4188356 212.55175781 449.49951172 C212.17921875 450.23105469 211.80667969 450.96259766 211.42285156 451.71630859 C210.51299454 453.50102814 209.59564918 455.28192681 208.67675781 457.06201172 C208.01675781 457.06201172 207.35675781 457.06201172 206.67675781 457.06201172 C206.4228125 457.77873047 206.16886719 458.49544922 205.90722656 459.23388672 C204.58020934 462.28391996 202.97346705 464.64560874 200.98925781 467.31201172 C200.27511719 468.27365234 199.56097656 469.23529297 198.82519531 470.22607422 C196.37521491 473.46004836 193.90807366 476.67801572 191.39941406 479.86669922 C190.20868261 481.3841393 189.02969736 482.91084372 187.86035156 484.44482422 C184.67381456 488.61554004 181.44004798 492.40940655 177.67675781 496.06201172 C177.34675781 496.72201172 177.01675781 497.38201172 176.67675781 498.06201172 C175.95488281 498.45388672 175.23300781 498.84576172 174.48925781 499.24951172 C171.89753533 500.91973287 170.58518363 502.21962861 168.67675781 504.56201172 C166.2805455 507.50169486 164.01205506 509.2090688 160.67675781 511.06201172 C160.01675781 512.05201172 159.35675781 513.04201172 158.67675781 514.06201172 C157.02235674 515.08217585 155.35270831 516.07765015 153.67675781 517.06201172 C151.84579476 518.40528586 150.05560673 519.79558393 148.26025391 521.18603516 C140.39043137 527.2742622 132.4224982 532.30154621 123.67675781 537.06201172 C122.48646204 537.75383836 121.29898056 538.45052806 120.11425781 539.15185547 C111.49075746 544.24536442 102.66059392 549.34688617 92.67675781 551.06201172 C92.67675781 551.72201172 92.67675781 552.38201172 92.67675781 553.06201172 C91.49984375 553.34431641 90.32292969 553.62662109 89.11035156 553.91748047 C85.24674807 554.88232247 81.5115286 556.09485743 77.73925781 557.37451172 C70.65165828 559.6678121 63.4764387 561.28229736 56.17675781 562.74951172 C55.18168213 562.95165283 54.18660645 563.15379395 53.16137695 563.36206055 C38.54688504 566.20498324 24.28361945 567.47605313 9.42675781 567.43701172 C8.19185608 567.43569748 8.19185608 567.43569748 6.93200684 567.43435669 C-27.81383373 567.31340333 -60.5625086 559.22858659 -92.14355469 544.93310547 C-96.81187935 542.82635814 -101.5386976 540.88927498 -106.32324219 539.06201172 C-106.32324219 538.40201172 -106.32324219 537.74201172 -106.32324219 537.06201172 C-107.31324219 537.06201172 -108.30324219 537.06201172 -109.32324219 537.06201172 C-109.32324219 536.40201172 -109.32324219 535.74201172 -109.32324219 535.06201172 C-110.20625 534.80806641 -111.08925781 534.55412109 -111.99902344 534.29248047 C-115.396604 533.03485664 -117.65265688 531.57536712 -120.51074219 529.37451172 C-124.31243418 526.51157313 -128.14503997 523.86879001 -132.19824219 521.37451172 C-136.10263411 518.94117964 -139.1092381 516.3652937 -142.32324219 513.06201172 C-143.53441863 512.34329163 -144.76511334 511.65671467 -146.01074219 510.99951172 C-149.33828608 509.05321246 -149.93215051 508.42381661 -151.32324219 505.06201172 C-152.31324219 504.73201172 -153.30324219 504.40201172 -154.32324219 504.06201172 C-154.32324219 503.07201172 -154.32324219 502.08201172 -154.32324219 501.06201172 C-154.8659375 500.85447266 -155.40863281 500.64693359 -155.96777344 500.43310547 C-159.22408722 498.53763924 -161.51998288 495.89898666 -164.01074219 493.12451172 C-164.50896484 492.58632813 -165.0071875 492.04814453 -165.52050781 491.49365234 C-167.75465859 489.03517707 -169.26131558 487.24779154 -170.32324219 484.06201172 C-170.98324219 484.06201172 -171.64324219 484.06201172 -172.32324219 484.06201172 C-173.68084152 482.38411298 -174.96036024 480.64258084 -176.19824219 478.87451172 C-178.25942379 475.94732035 -180.30285545 473.08673682 -182.58105469 470.32373047 C-184.32324219 468.06201172 -184.32324219 468.06201172 -184.32324219 466.06201172 C-184.98324219 466.06201172 -185.64324219 466.06201172 -186.32324219 466.06201172 C-186.62617188 465.49353516 -186.92910156 464.92505859 -187.24121094 464.33935547 C-187.66015625 463.56720703 -188.07910156 462.79505859 -188.51074219 461.99951172 C-189.11982422 460.86835937 -189.11982422 460.86835937 -189.74121094 459.71435547 C-190.98879417 457.62272827 -192.27012615 455.76243105 -193.72167969 453.81982422 C-196.63518599 449.79563525 -198.69437331 445.50379321 -200.76074219 440.99951172 C-201.14907227 440.16387695 -201.53740234 439.32824219 -201.9375 438.46728516 C-203.07646798 436.00345302 -204.20251586 433.53418702 -205.32324219 431.06201172 C-205.62439941 430.40152832 -205.92555664 429.74104492 -206.23583984 429.06054688 C-220.59827669 397.35446956 -228.81727472 357.54451192 -216.47753906 323.74560547 C-211.2505988 310.27319468 -204.62161502 296.40519059 -193.01074219 287.37451172 C-192.12386719 286.61138672 -191.23699219 285.84826172 -190.32324219 285.06201172 C-190.32324219 284.40201172 -190.32324219 283.74201172 -190.32324219 283.06201172 C-189.75734375 282.80806641 -189.19144531 282.55412109 -188.60839844 282.29248047 C-187.87492187 281.94830078 -187.14144531 281.60412109 -186.38574219 281.24951172 C-185.65484375 280.91306641 -184.92394531 280.57662109 -184.17089844 280.22998047 C-181.99294729 279.12601038 -181.99294729 279.12601038 -181.32324219 276.06201172 C-182.23074219 275.64951172 -183.13824219 275.23701172 -184.07324219 274.81201172 C-187.15286611 273.15375268 -188.96310102 271.58492124 -191.32324219 269.06201172 C-192.31324219 268.40201172 -193.30324219 267.74201172 -194.32324219 267.06201172 C-194.32324219 266.40201172 -194.32324219 265.74201172 -194.32324219 265.06201172 C-195.31324219 264.73201172 -196.30324219 264.40201172 -197.32324219 264.06201172 C-198.35337496 262.41379928 -199.35438847 260.7469747 -200.32324219 259.06201172 C-200.98324219 258.73201172 -201.64324219 258.40201172 -202.32324219 258.06201172 C-203.36968285 256.4241046 -204.36306049 254.75193151 -205.32324219 253.06201172 C-205.78988281 252.29759766 -206.25652344 251.53318359 -206.73730469 250.74560547 C-209.54671743 245.99174697 -211.93792888 241.03924027 -214.32324219 236.06201172 C-214.7215625 235.23314453 -215.11988281 234.40427734 -215.53027344 233.55029297 C-221.08261193 220.96915144 -220.595602 207.15514243 -220.44824219 193.68701172 C-220.43817934 192.06462149 -220.42905941 190.44222513 -220.42089844 188.81982422 C-220.39917638 184.90039789 -220.36483437 180.98127547 -220.32324219 177.06201172 C-219.66324219 177.06201172 -219.00324219 177.06201172 -218.32324219 177.06201172 C-218.28585938 176.14419922 -218.24847656 175.22638672 -218.20996094 174.28076172 C-217.58093794 162.53899917 -217.58093794 162.53899917 -215.27636719 157.31982422 C-213.92319398 154.11435653 -212.89326927 150.80734357 -211.82324219 147.49951172 C-210.21735548 142.55317478 -208.55038801 137.75915702 -206.32324219 133.06201172 C-205.66324219 132.73201172 -205.00324219 132.40201172 -204.32324219 132.06201172 C-203.79730469 130.29857422 -203.79730469 130.29857422 -203.26074219 128.49951172 C-201.4825115 122.73655466 -198.47764099 117.74317213 -195.4597168 112.55981445 C-193.82469705 109.74853128 -192.35501668 107.15733519 -191.32324219 104.06201172 C-189.98990885 102.72867839 -188.65657552 101.39534505 -187.32324219 100.06201172 C-186.82824219 98.57701172 -186.82824219 98.57701172 -186.32324219 97.06201172 C-185.66324219 97.06201172 -185.00324219 97.06201172 -184.32324219 97.06201172 C-184.32324219 96.07201172 -184.32324219 95.08201172 -184.32324219 94.06201172 C-183.66324219 93.73201172 -183.00324219 93.40201172 -182.32324219 93.06201172 C-181.82824219 91.57701172 -181.82824219 91.57701172 -181.32324219 90.06201172 C-179.69159039 88.36105082 -178.01811145 86.69999027 -176.32324219 85.06201172 C-175.39501634 84.07566856 -174.47460552 83.08192148 -173.56152344 82.08154297 C-173.08690674 81.56180908 -172.61229004 81.0420752 -172.12329102 80.5065918 C-171.38695435 79.69871216 -171.38695435 79.69871216 -170.63574219 78.87451172 C-165.95547503 73.76165781 -161.15165944 68.82622693 -156.18652344 63.98779297 C-154.26382937 62.19363483 -154.26382937 62.19363483 -153.32324219 60.06201172 C-151.66662458 59.04545091 -149.99799363 58.04841193 -148.32324219 57.06201172 C-146.55052704 55.73772008 -144.8003535 54.38275207 -143.07324219 52.99951172 C-142.20183594 52.30728516 -141.33042969 51.61505859 -140.43261719 50.90185547 C-138.25101344 49.2342963 -138.25101344 49.2342963 -137.32324219 47.06201172 C-135.59618176 46.09884341 -133.86799119 45.13759417 -132.13183594 44.19091797 C-130.10745626 43.03842309 -130.10745626 43.03842309 -128.13574219 40.68701172 C-124.55130517 37.34153717 -120.67100699 35.57307419 -116.26074219 33.49169922 C-113.30500326 32.11079712 -113.30500326 32.11079712 -110.57324219 30.38232422 C-108.32324219 29.06201172 -108.32324219 29.06201172 -106.32324219 29.06201172 C-106.32324219 28.40201172 -106.32324219 27.74201172 -106.32324219 27.06201172 C-103.41723958 25.80536194 -101.52719634 25.06201172 -98.32324219 25.06201172 C-98.32324219 24.40201172 -98.32324219 23.74201172 -98.32324219 23.06201172 C-97.76451416 22.84061523 -97.20578613 22.61921875 -96.63012695 22.39111328 C-94.04790668 21.3666469 -91.46682352 20.33934402 -88.88574219 19.31201172 C-88.00724609 18.96396484 -87.12875 18.61591797 -86.22363281 18.25732422 C-82.04049745 16.59024444 -77.9132973 14.88266692 -73.83886719 12.96435547 C-68.88349978 10.73551011 -63.80110991 9.54222241 -58.51074219 8.37451172 C-57.58326172 8.16246094 -56.65578125 7.95041016 -55.70019531 7.73193359 C-53.98851315 7.34072722 -52.27596668 6.95326668 -50.56225586 6.57104492 C-49.15209199 6.2504483 -47.74536393 5.91392373 -46.34448242 5.55493164 C-31.1223795 1.8427169 -15.60675131 0.41657365 0 0 Z M-38.63574219 37.43701172 C-39.54775391 37.64583984 -40.45976562 37.85466797 -41.39941406 38.06982422 C-46.25368605 39.21118709 -50.8775764 40.53461659 -55.51586914 42.36572266 C-59.22113472 43.79317334 -63.07018801 44.79986464 -66.88183594 45.90185547 C-74.66087641 48.52430158 -81.89385289 52.29394855 -89.13574219 56.12451172 C-89.96783203 56.55828125 -90.79992187 56.99205078 -91.65722656 57.43896484 C-92.46095703 57.86242187 -93.2646875 58.28587891 -94.09277344 58.72216797 C-94.81053955 59.09994385 -95.52830566 59.47771973 -96.26782227 59.86694336 C-98.44129506 61.13065037 -100.40834451 62.43048334 -102.32324219 64.06201172 C-102.32324219 64.72201172 -102.32324219 65.38201172 -102.32324219 66.06201172 C-103.64324219 66.06201172 -104.96324219 66.06201172 -106.32324219 66.06201172 C-106.32324219 66.72201172 -106.32324219 67.38201172 -106.32324219 68.06201172 C-106.90074219 68.14451172 -107.47824219 68.22701172 -108.07324219 68.31201172 C-110.9508111 69.27120136 -112.22850469 70.90181367 -114.32324219 73.06201172 C-116.57324219 74.31201172 -116.57324219 74.31201172 -118.32324219 75.06201172 C-118.32324219 75.72201172 -118.32324219 76.38201172 -118.32324219 77.06201172 C-118.98324219 77.06201172 -119.64324219 77.06201172 -120.32324219 77.06201172 C-120.32324219 77.72201172 -120.32324219 78.38201172 -120.32324219 79.06201172 C-121.31324219 79.06201172 -122.30324219 79.06201172 -123.32324219 79.06201172 C-123.32324219 79.72201172 -123.32324219 80.38201172 -123.32324219 81.06201172 C-124.64324219 81.39201172 -125.96324219 81.72201172 -127.32324219 82.06201172 C-127.32324219 82.72201172 -127.32324219 83.38201172 -127.32324219 84.06201172 C-128.31324219 84.39201172 -129.30324219 84.72201172 -130.32324219 85.06201172 C-131.68149101 86.36995503 -133.00780355 87.71102069 -134.32324219 89.06201172 C-135.61174818 90.14910243 -136.90376025 91.23204393 -138.19824219 92.31201172 C-141.66775871 95.31163083 -144.30461669 98.47668621 -146.94042969 102.21435547 C-148.32324219 104.06201172 -148.32324219 104.06201172 -151.13574219 106.74951172 C-153.58587291 109.33964991 -153.68231828 110.67427106 -154.32324219 114.06201172 C-156.38574219 115.37451172 -156.38574219 115.37451172 -158.32324219 116.06201172 C-158.32324219 117.05201172 -158.32324219 118.04201172 -158.32324219 119.06201172 C-158.98324219 119.06201172 -159.64324219 119.06201172 -160.32324219 119.06201172 C-160.98324219 121.04201172 -161.64324219 123.02201172 -162.32324219 125.06201172 C-162.98324219 125.06201172 -163.64324219 125.06201172 -164.32324219 125.06201172 C-165.16143376 126.68451113 -165.99365379 128.31009669 -166.82324219 129.93701172 C-167.51933594 131.29439453 -167.51933594 131.29439453 -168.22949219 132.67919922 C-169.46229807 134.92798031 -169.46229807 134.92798031 -169.32324219 137.06201172 C-169.98324219 137.06201172 -170.64324219 137.06201172 -171.32324219 137.06201172 C-174.84558293 143.16835573 -174.84558293 143.16835573 -175.32324219 150.06201172 C-175.98324219 150.06201172 -176.64324219 150.06201172 -177.32324219 150.06201172 C-177.32324219 151.38201172 -177.32324219 152.70201172 -177.32324219 154.06201172 C-177.98324219 154.06201172 -178.64324219 154.06201172 -179.32324219 154.06201172 C-182.88179009 163.97812346 -185.5529697 173.65082879 -187.32324219 184.06201172 C-187.45601562 184.78517578 -187.58878906 185.50833984 -187.72558594 186.25341797 C-190.07709768 201.16780063 -187.56259664 215.75879843 -183.32324219 230.06201172 C-182.66324219 230.06201172 -182.00324219 230.06201172 -181.32324219 230.06201172 C-180.89011719 231.39232422 -180.89011719 231.39232422 -180.44824219 232.74951172 C-179.49175471 235.56583596 -178.45525272 238.31284327 -177.32324219 241.06201172 C-176.66324219 241.06201172 -176.00324219 241.06201172 -175.32324219 241.06201172 C-175.09636719 241.92826172 -174.86949219 242.79451172 -174.63574219 243.68701172 C-172.32914914 249.61825098 -167.82145858 253.68536874 -163.32324219 258.06201172 C-162.66324219 258.72201172 -162.00324219 259.38201172 -161.32324219 260.06201172 C-160.33324219 260.06201172 -159.34324219 260.06201172 -158.32324219 260.06201172 C-157.66324219 261.38201172 -157.00324219 262.70201172 -156.32324219 264.06201172 C-155.33324219 264.06201172 -154.34324219 264.06201172 -153.32324219 264.06201172 C-153.32324219 264.72201172 -153.32324219 265.38201172 -153.32324219 266.06201172 C-152.35386719 266.51576172 -151.38449219 266.96951172 -150.38574219 267.43701172 C-147.32324219 269.06201172 -147.32324219 269.06201172 -146.32324219 271.06201172 C-142.97813867 272.68935938 -141.13488384 273.06201172 -137.32324219 273.06201172 C-137.32324219 273.72201172 -137.32324219 274.38201172 -137.32324219 275.06201172 C-135.67324219 275.72201172 -134.02324219 276.38201172 -132.32324219 277.06201172 C-132.32324219 277.72201172 -132.32324219 278.38201172 -132.32324219 279.06201172 C-132.86851562 279.22056641 -133.41378906 279.37912109 -133.97558594 279.54248047 C-139.88445466 281.37069455 -145.02188391 283.89122296 -150.32324219 287.06201172 C-150.32324219 287.72201172 -150.32324219 288.38201172 -150.32324219 289.06201172 C-150.94199219 289.20638672 -151.56074219 289.35076172 -152.19824219 289.49951172 C-154.35582541 289.99353397 -154.35582541 289.99353397 -156.32324219 291.06201172 C-156.32324219 291.72201172 -156.32324219 292.38201172 -156.32324219 293.06201172 C-156.96261719 293.33013672 -157.60199219 293.59826172 -158.26074219 293.87451172 C-160.65455905 294.94868924 -160.65455905 294.94868924 -161.32324219 298.06201172 C-163.38574219 299.24951172 -163.38574219 299.24951172 -165.32324219 300.06201172 C-165.32324219 300.72201172 -165.32324219 301.38201172 -165.32324219 302.06201172 C-166.64324219 302.72201172 -167.96324219 303.38201172 -169.32324219 304.06201172 C-169.32324219 304.72201172 -169.32324219 305.38201172 -169.32324219 306.06201172 C-169.98324219 306.06201172 -170.64324219 306.06201172 -171.32324219 306.06201172 C-173.36493704 308.96750054 -174.32324219 310.46343218 -174.32324219 314.06201172 C-174.98324219 314.06201172 -175.64324219 314.06201172 -176.32324219 314.06201172 C-181.26782086 322.68082277 -184.60607899 330.60142413 -186.67480469 340.36669922 C-187.32324219 343.06201172 -187.32324219 343.06201172 -188.32324219 344.06201172 C-191.70401197 365.88116421 -188.06913737 388.83712912 -179.32324219 409.06201172 C-178.66324219 409.06201172 -178.00324219 409.06201172 -177.32324219 409.06201172 C-177.19949219 410.17576172 -177.07574219 411.28951172 -176.94824219 412.43701172 C-176.67666088 416.09304849 -176.67666088 416.09304849 -174.32324219 418.06201172 C-173.71758596 419.50295686 -173.16205805 420.96523253 -172.63574219 422.43701172 C-170.22642945 428.6557661 -167.14281874 434.58665814 -163.32324219 440.06201172 C-162.66324219 440.06201172 -162.00324219 440.06201172 -161.32324219 440.06201172 C-160.82824219 442.04201172 -160.82824219 442.04201172 -160.32324219 444.06201172 C-159.66324219 444.06201172 -159.00324219 444.06201172 -158.32324219 444.06201172 C-157.99324219 445.71201172 -157.66324219 447.36201172 -157.32324219 449.06201172 C-156.66324219 449.06201172 -156.00324219 449.06201172 -155.32324219 449.06201172 C-155.32324219 449.72201172 -155.32324219 450.38201172 -155.32324219 451.06201172 C-154.66324219 451.06201172 -154.00324219 451.06201172 -153.32324219 451.06201172 C-153.32324219 452.05201172 -153.32324219 453.04201172 -153.32324219 454.06201172 C-152.33324219 454.06201172 -151.34324219 454.06201172 -150.32324219 454.06201172 C-150.24074219 454.82513672 -150.15824219 455.58826172 -150.07324219 456.37451172 C-149.16244207 459.63821214 -148.04185854 460.19296298 -145.32324219 462.06201172 C-144.82824219 463.54701172 -144.82824219 463.54701172 -144.32324219 465.06201172 C-143.66324219 465.06201172 -143.00324219 465.06201172 -142.32324219 465.06201172 C-142.05511719 465.70138672 -141.78699219 466.34076172 -141.51074219 466.99951172 C-140.43656467 469.39332858 -140.43656467 469.39332858 -137.32324219 470.06201172 C-136.61616779 471.37436381 -135.95310168 472.71090135 -135.32324219 474.06201172 C-130.15370375 480.25641492 -121.49912874 489.87488065 -113.32324219 491.06201172 C-113.32324219 491.72201172 -113.32324219 492.38201172 -113.32324219 493.06201172 C-109.87122385 496.36491364 -109.87122385 496.36491364 -105.32324219 497.06201172 C-105.32324219 497.72201172 -105.32324219 498.38201172 -105.32324219 499.06201172 C-104.33324219 499.06201172 -103.34324219 499.06201172 -102.32324219 499.06201172 C-101.82824219 500.54701172 -101.82824219 500.54701172 -101.32324219 502.06201172 C-99.13887723 503.60602859 -97.0040758 504.97350064 -94.69824219 506.31201172 C-94.025271 506.70751221 -93.3522998 507.1030127 -92.65893555 507.51049805 C-68.87027287 521.25315116 -42.46657618 529.41149825 -15.32324219 533.06201172 C-14.67395752 533.15361572 -14.02467285 533.24521973 -13.35571289 533.33959961 C17.31020984 537.2725701 51.13518387 532.99592896 79.67675781 521.06201172 C81.3016229 520.43666106 82.92662425 519.81166433 84.55175781 519.18701172 C100.22594721 512.92598241 100.22594721 512.92598241 113.67675781 503.06201172 C114.29550781 502.93826172 114.91425781 502.81451172 115.55175781 502.68701172 C117.83970055 502.19835156 117.83970055 502.19835156 119.55175781 500.18701172 C121.67675781 498.06201172 121.67675781 498.06201172 124.45019531 496.70654297 C127.82472768 494.98659366 130.50021725 493.02152629 133.42675781 490.62451172 C134.37035156 489.86267578 135.31394531 489.10083984 136.28613281 488.31591797 C138.7373412 486.27226952 138.7373412 486.27226952 139.75488281 483.83935547 C140.05910156 483.25283203 140.36332031 482.66630859 140.67675781 482.06201172 C141.28455078 481.92335693 141.89234375 481.78470215 142.51855469 481.6418457 C145.13648147 480.93849999 146.21762754 479.90813865 148.12988281 478.00732422 C148.74863281 477.39244141 149.36738281 476.77755859 150.00488281 476.14404297 C150.63910156 475.49822266 151.27332031 474.85240234 151.92675781 474.18701172 C152.90128906 473.22988281 152.90128906 473.22988281 153.89550781 472.25341797 C154.50910156 471.63595703 155.12269531 471.01849609 155.75488281 470.38232422 C156.31594727 469.81787598 156.87701172 469.25342773 157.45507812 468.671875 C158.97901451 467.00053602 158.97901451 467.00053602 158.67675781 464.06201172 C159.33675781 464.06201172 159.99675781 464.06201172 160.67675781 464.06201172 C161.00675781 462.74201172 161.33675781 461.42201172 161.67675781 460.06201172 C162.66675781 460.06201172 163.65675781 460.06201172 164.67675781 460.06201172 C164.75925781 459.44326172 164.84175781 458.82451172 164.92675781 458.18701172 C165.17425781 457.48576172 165.42175781 456.78451172 165.67675781 456.06201172 C166.26457031 455.81064453 166.85238281 455.55927734 167.45800781 455.30029297 C170.62092434 453.53507371 171.9561176 451.13521204 173.92675781 448.12451172 C174.63316406 447.06361328 175.33957031 446.00271484 176.06738281 444.90966797 C177.92276677 442.17188057 177.92276677 442.17188057 177.67675781 439.06201172 C178.33675781 439.06201172 178.99675781 439.06201172 179.67675781 439.06201172 C181.95410791 436.24691178 181.95410791 436.24691178 181.67675781 433.06201172 C182.33675781 433.06201172 182.99675781 433.06201172 183.67675781 433.06201172 C184.93340759 430.15600911 185.67675781 428.26596587 185.67675781 425.06201172 C186.33675781 425.06201172 186.99675781 425.06201172 187.67675781 425.06201172 C190.10474581 419.81267453 192.35154642 414.4986465 194.48925781 409.12451172 C194.92882812 408.02236328 195.36839844 406.92021484 195.82128906 405.78466797 C197.0011864 403.13190361 197.0011864 403.13190361 195.67675781 401.06201172 C196.33675781 401.06201172 196.99675781 401.06201172 197.67675781 401.06201172 C204.95053606 374.77091247 210.33268852 344.74007134 196.23144531 319.47216797 C195.461875 318.27914062 195.461875 318.27914062 194.67675781 317.06201172 C194.12117188 316.15322266 193.56558594 315.24443359 192.99316406 314.30810547 C192.414375 313.38126953 191.83558594 312.45443359 191.23925781 311.49951172 C190.66304688 310.57009766 190.08683594 309.64068359 189.49316406 308.68310547 C187.73657446 306.14832778 185.99855077 304.08821707 183.67675781 302.06201172 C183.01675781 302.06201172 182.35675781 302.06201172 181.67675781 302.06201172 C181.42925781 301.48451172 181.18175781 300.90701172 180.92675781 300.31201172 C179.48282082 297.71292513 177.94153794 295.98364334 175.67675781 294.06201172 C174.68675781 294.06201172 173.69675781 294.06201172 172.67675781 294.06201172 C172.44988281 293.46388672 172.22300781 292.86576172 171.98925781 292.24951172 C170.30965735 289.45017761 168.58570657 288.48101111 165.67675781 287.06201172 C164.68675781 287.06201172 163.69675781 287.06201172 162.67675781 287.06201172 C162.67675781 286.40201172 162.67675781 285.74201172 162.67675781 285.06201172 C160.55393112 284.05740641 158.4284276 283.0584557 156.30175781 282.06201172 C155.11839844 281.50513672 153.93503906 280.94826172 152.71582031 280.37451172 C149.92247206 278.92985131 149.92247206 278.92985131 147.67675781 279.06201172 C147.67675781 278.07201172 147.67675781 277.08201172 147.67675781 276.06201172 C149.32675781 275.73201172 150.97675781 275.40201172 152.67675781 275.06201172 C152.67675781 274.40201172 152.67675781 273.74201172 152.67675781 273.06201172 C153.5571875 272.95115234 154.43761719 272.84029297 155.34472656 272.72607422 C165.63909467 270.67444165 175.70253694 262.7071308 182.67675781 255.06201172 C182.67675781 254.40201172 182.67675781 253.74201172 182.67675781 253.06201172 C183.27488281 252.81451172 183.87300781 252.56701172 184.48925781 252.31201172 C187.0126265 250.87008675 188.17705858 249.53651546 189.67675781 247.06201172 C189.67675781 246.07201172 189.67675781 245.08201172 189.67675781 244.06201172 C190.66675781 243.73201172 191.65675781 243.40201172 192.67675781 243.06201172 C193.69957299 240.964813 193.69957299 240.964813 194.36425781 238.49951172 C194.615625 237.67322266 194.86699219 236.84693359 195.12597656 235.99560547 C195.30773437 235.35751953 195.48949219 234.71943359 195.67675781 234.06201172 C196.33675781 234.06201172 196.99675781 234.06201172 197.67675781 234.06201172 C197.94939453 233.24410156 197.94939453 233.24410156 198.22753906 232.40966797 C198.47890625 231.65556641 198.73027344 230.90146484 198.98925781 230.12451172 C199.26125 229.29822266 199.53324219 228.47193359 199.81347656 227.62060547 C200.35329101 226.02070293 200.91499493 224.42783122 201.50878906 222.84716797 C210.11615275 199.39952207 203.76591506 170.06496103 193.67675781 148.06201172 C191.73170293 144.03296946 189.7165665 140.04371828 187.67675781 136.06201172 C187.15210938 134.98435547 186.62746094 133.90669922 186.08691406 132.79638672 C184.87728446 130.11036226 184.87728446 130.11036226 183.17675781 128.56201172 C181.67675781 127.06201172 181.67675781 127.06201172 180.32519531 124.31591797 C177.1614192 118.07083383 172.87257316 111.98404309 167.80175781 107.12451172 C165.78868217 105.17064418 164.72613391 103.63775304 163.67675781 101.06201172 C162.68675781 101.06201172 161.69675781 101.06201172 160.67675781 101.06201172 C160.67675781 100.07201172 160.67675781 99.08201172 160.67675781 98.06201172 C158.36419288 95.33274781 158.36419288 95.33274781 155.67675781 93.06201172 C155.01675781 93.06201172 154.35675781 93.06201172 153.67675781 93.06201172 C153.34675781 92.07201172 153.01675781 91.08201172 152.67675781 90.06201172 C152.01675781 90.06201172 151.35675781 90.06201172 150.67675781 90.06201172 C150.67675781 89.40201172 150.67675781 88.74201172 150.67675781 88.06201172 C150.01675781 88.06201172 149.35675781 88.06201172 148.67675781 88.06201172 C148.33644531 87.16482422 148.33644531 87.16482422 147.98925781 86.24951172 C146.31776144 83.46368444 144.47111742 82.6866394 141.67675781 81.06201172 C140.01009115 79.39534505 138.34342448 77.72867839 136.67675781 76.06201172 C126.20836091 66.54205124 126.20836091 66.54205124 113.67675781 62.06201172 C113.67675781 61.40201172 113.67675781 60.74201172 113.67675781 60.06201172 C111.76526114 59.05216442 109.84734212 58.05446677 107.92675781 57.06201172 C106.85941406 56.50513672 105.79207031 55.94826172 104.69238281 55.37451172 C101.61362313 53.7959627 101.61362313 53.7959627 97.67675781 54.06201172 C97.67675781 53.40201172 97.67675781 52.74201172 97.67675781 52.06201172 C53.94305322 33.43648487 7.97483668 26.50808325 -38.63574219 37.43701172 Z " fill="#010101" transform="translate(221.3232421875,7.93798828125)"/>
<path d="M0 0 C6.31254278 1.91662162 12.429069 3.38010085 19 4 C16.41339558 6.66268102 13.88725156 9.09160811 11 11.4375 C7.86498773 14.11532298 5.58579835 16.80177573 3 20 C0.8125 22.375 0.8125 22.375 -1 24 C-1.66 24 -2.32 24 -3 24 C-4.07525194 26.65228812 -5.09456151 29.28368454 -6 32 C-6.66 32 -7.32 32 -8 32 C-8.2475 32.639375 -8.495 33.27875 -8.75 33.9375 C-12.6354717 43.45690566 -12.6354717 43.45690566 -14.96557617 47.79956055 C-19.04384421 56.47490392 -19.60669315 66.32920632 -20.1875 75.75 C-20.3102832 77.52890625 -20.3102832 77.52890625 -20.43554688 79.34375 C-20.63330327 82.22866679 -20.82130003 85.11385108 -21 88 C-20.34 88 -19.68 88 -19 88 C-18.92523438 88.76699219 -18.85046875 89.53398437 -18.7734375 90.32421875 C-17.52987063 100.82138619 -14.71220159 110.63959927 -11.63256836 120.72680664 C-10.96260182 123.13439384 -10.46180016 125.5447399 -10 128 C-9.34 128 -8.68 128 -8 128 C-7.71125 129.11375 -7.4225 130.2275 -7.125 131.375 C-6.30758671 135.00291092 -6.30758671 135.00291092 -4 137 C-3.37290015 138.482236 -2.7961644 139.9860706 -2.25 141.5 C-0.38660912 146.35610957 2.03147033 150.59378527 4.828125 154.96875 C6 157 6 157 6 159 C6.66 159 7.32 159 8 159 C8.33 159.99 8.66 160.98 9 162 C9.66 162.33 10.32 162.66 11 163 C11.625 165.5625 11.625 165.5625 12 168 C12.66 168 13.32 168 14 168 C14 168.66 14 169.32 14 170 C14.66 170 15.32 170 16 170 C16 170.99 16 171.98 16 173 C16.99 173 17.98 173 19 173 C19.433125 173.94875 19.86625 174.8975 20.3125 175.875 C21.79302201 179.20041937 21.79302201 179.20041937 25 181 C25 181.99 25 182.98 25 184 C25.66 184 26.32 184 27 184 C28.48046875 185.50390625 28.48046875 185.50390625 30.1875 187.5625 C37.33898908 195.93282603 45.79253275 205.48194072 56 210 C56 210.66 56 211.32 56 212 C56.99 212.33 57.98 212.66 59 213 C59 213.66 59 214.32 59 215 C60.65 215.33 62.3 215.66 64 216 C64 216.66 64 217.32 64 218 C64.99 218 65.98 218 67 218 C68.0237992 218.97562042 69.01851383 219.98182276 70 221 C94.65865457 237.98051063 124.58299807 247.04370039 154 251 C154.64928467 251.091604 155.29856934 251.18320801 155.9675293 251.27758789 C186.63345203 255.21055838 220.45842606 250.93391725 249 239 C250.62486509 238.37464935 252.24986643 237.74965262 253.875 237.125 C269.5491894 230.86397069 269.5491894 230.86397069 283 221 C284.32 221 285.64 221 287 221 C287.33 220.01 287.66 219.02 288 218 C289.6796875 216.9296875 289.6796875 216.9296875 291.875 215.875 C298.67507938 212.2948619 305.70309253 207.4453612 310 201 C310.73734375 200.566875 311.4746875 200.13375 312.234375 199.6875 C315.74054697 197.54814083 318.37952226 194.91269065 321.25 192 C321.79140625 191.46632813 322.3328125 190.93265625 322.890625 190.3828125 C325.30832895 187.95302003 326.90179449 186.29461654 328 183 C328.66 183 329.32 183 330 183 C330.33 181.68 330.66 180.36 331 179 C331.99 179 332.98 179 334 179 C334.0928125 178.1646875 334.0928125 178.1646875 334.1875 177.3125 C335.33230167 174.05421833 337.55695555 172.44304445 340 170 C342.80725969 166.18293466 345.49556922 162.51329234 347 158 C347.66 158 348.32 158 349 158 C349.66 156.02 350.32 154.04 351 152 C351.66 152 352.32 152 353 152 C353.66 149.36 354.32 146.72 355 144 C355.66 144 356.32 144 357 144 C357.391875 142.783125 357.78375 141.56625 358.1875 140.3125 C359.93426701 135.03860729 361.96447316 129.88606326 364.01171875 124.72265625 C365.11373386 122.16941548 365.11373386 122.16941548 365 120 C365.66 120 366.32 120 367 120 C367.103125 118.906875 367.20625 117.81375 367.3125 116.6875 C367.73123317 113.27781561 368.48011649 110.1101543 369.4375 106.8125 C375.4455321 85.28371832 375.75988276 58.44151555 364.55078125 38.41015625 C364.03902344 37.61480469 363.52726562 36.81945312 363 36 C362.45601563 35.09121094 361.91203125 34.18242187 361.3515625 33.24609375 C360.78179687 32.31925781 360.21203125 31.39242187 359.625 30.4375 C359.06039063 29.50808594 358.49578125 28.57867187 357.9140625 27.62109375 C355.87706549 24.83165498 353.73050826 23.09108544 351 21 C349.39575976 19.21463586 347.91969447 17.36891167 346.4296875 15.48828125 C344.96118369 13.72868333 344.96118369 13.72868333 342 13 C340.17578125 11.15234375 340.17578125 11.15234375 338.3125 8.9375 C337.37857422 7.83728516 337.37857422 7.83728516 336.42578125 6.71484375 C335.72001953 5.86599609 335.72001953 5.86599609 335 5 C339.02473352 2.31684432 343.16160305 1.97055885 347.84375 1.23242188 C351.38030112 0.63080933 354.4901119 -0.1093428 357.765625 -1.59765625 C361 -3 361 -3 365 -3 C365 -2.34 365 -1.68 365 -1 C365.804375 -0.8453125 365.804375 -0.8453125 366.625 -0.6875 C372.37453941 0.97684036 375.87573217 3.76426547 380 8 C380.99 8.33 381.98 8.66 383 9 C384.04349839 10.63978318 385.03182008 12.31464976 386 14 C387.56921001 16.10032725 389.17302001 18.16907413 390.79296875 20.23046875 C392 22 392 22 392 24 C392.66 24 393.32 24 394 24 C394.33 25.65 394.66 27.3 395 29 C395.66 29 396.32 29 397 29 C397.50615298 30.26839526 398.00469099 31.53983102 398.5 32.8125 C398.91765625 33.87404297 398.91765625 33.87404297 399.34375 34.95703125 C400 37 400 37 400 40 C400.66 40 401.32 40 402 40 C402.12375 40.78375 402.2475 41.5675 402.375 42.375 C403.29142963 47.69029188 404.30787705 52.99733127 405.51953125 58.25390625 C410.70108614 87.86880942 403.33608119 117.41872521 393 145 C392.7102832 145.77520996 392.42056641 146.55041992 392.12207031 147.34912109 C391.41662984 149.23346591 390.70860026 151.11684113 390 153 C389.34 153 388.68 153 388 153 C387.63261719 154.47146484 387.63261719 154.47146484 387.2578125 155.97265625 C385.99156294 160.4045297 383.98814061 164.35682388 381.875 168.4375 C381.50246094 169.16904297 381.12992187 169.90058594 380.74609375 170.65429688 C379.83623673 172.43901642 378.91889137 174.21991509 378 176 C377.34 176 376.68 176 376 176 C375.74605469 176.71671875 375.49210937 177.4334375 375.23046875 178.171875 C373.90345153 181.22190824 372.29670923 183.58359702 370.3125 186.25 C369.59835937 187.21164062 368.88421875 188.17328125 368.1484375 189.1640625 C365.69845709 192.39803664 363.23131585 195.616004 360.72265625 198.8046875 C359.5319248 200.32212758 358.35293954 201.848832 357.18359375 203.3828125 C353.99705675 207.55352832 350.76329017 211.34739483 347 215 C346.67 215.66 346.34 216.32 346 217 C344.9171875 217.5878125 344.9171875 217.5878125 343.8125 218.1875 C341.22077752 219.85772115 339.90842582 221.15761689 338 223.5 C335.60378769 226.43968315 333.33529725 228.14705708 330 230 C329.34 230.99 328.68 231.98 328 233 C326.34559893 234.02016413 324.6759505 235.01563843 323 236 C321.16903695 237.34327414 319.37884891 238.73357221 317.58349609 240.12402344 C309.71367356 246.21225049 301.74574039 251.23953449 293 256 C291.80970423 256.69182664 290.62222275 257.38851634 289.4375 258.08984375 C280.81399965 263.1833527 271.98383611 268.28487445 262 270 C262 270.66 262 271.32 262 272 C260.82308594 272.28230469 259.64617187 272.56460937 258.43359375 272.85546875 C254.56999026 273.82031075 250.83477079 275.03284571 247.0625 276.3125 C239.97490046 278.60580038 232.79968089 280.22028564 225.5 281.6875 C224.50492432 281.88964111 223.50984863 282.09178223 222.48461914 282.30004883 C207.87012722 285.14297152 193.60686164 286.41404142 178.75 286.375 C177.51509827 286.37368576 177.51509827 286.37368576 176.25524902 286.37234497 C141.50940846 286.25139161 108.76073358 278.16657487 77.1796875 263.87109375 C72.51136284 261.76434642 67.78454459 259.82726326 63 258 C63 257.34 63 256.68 63 256 C62.01 256 61.02 256 60 256 C60 255.34 60 254.68 60 254 C59.11699219 253.74605469 58.23398438 253.49210937 57.32421875 253.23046875 C53.92663819 251.97284492 51.67058531 250.5133554 48.8125 248.3125 C45.010808 245.44956142 41.17820222 242.80677829 37.125 240.3125 C33.22060808 237.87916792 30.21400409 235.30328198 27 232 C25.78882356 231.28127991 24.55812885 230.59470295 23.3125 229.9375 C19.98495611 227.99120074 19.39109168 227.36180489 18 224 C17.01 223.67 16.02 223.34 15 223 C15 222.01 15 221.02 15 220 C14.45730469 219.79246094 13.91460937 219.58492187 13.35546875 219.37109375 C10.09915497 217.47562752 7.80325931 214.83697494 5.3125 212.0625 C4.56516602 211.25522461 4.56516602 211.25522461 3.80273438 210.43164062 C1.5685836 207.97316535 0.06192661 206.18577982 -1 203 C-1.66 203 -2.32 203 -3 203 C-4.35759933 201.32210126 -5.63711805 199.58056912 -6.875 197.8125 C-8.93618161 194.88530863 -10.97961326 192.0247251 -13.2578125 189.26171875 C-15 187 -15 187 -15 185 C-15.66 185 -16.32 185 -17 185 C-17.30292969 184.43152344 -17.60585938 183.86304688 -17.91796875 183.27734375 C-18.33691406 182.50519531 -18.75585938 181.73304688 -19.1875 180.9375 C-19.59355469 180.18339844 -19.99960937 179.42929687 -20.41796875 178.65234375 C-21.66555198 176.56071655 -22.94688396 174.70041934 -24.3984375 172.7578125 C-27.3119438 168.73362353 -29.37113112 164.44178149 -31.4375 159.9375 C-31.82583008 159.10186523 -32.21416016 158.26623047 -32.61425781 157.40527344 C-33.75322579 154.9414413 -34.87927368 152.47217531 -36 150 C-36.30115723 149.3395166 -36.60231445 148.6790332 -36.91259766 147.99853516 C-51.2750345 116.29245784 -59.49403253 76.4825002 -47.15429688 42.68359375 C-35.99111209 13.91054421 -35.99111209 13.91054421 -25.0625 8.5625 C-21.63657517 6.81457917 -19.67703136 4.7423248 -17 2 C-11.04887701 -4.04315067 -7.5107307 -2.91232415 0 0 Z " fill="#CCBB80" transform="translate(52,289)"/>
<path d="M0 0 C6.6 0 13.2 0 20 0 C20.12874318 45.10305345 20.25626523 90.20611021 20.38218227 135.30917164 C20.39719485 140.68625768 20.41221739 146.06334369 20.42724609 151.44042969 C20.43023671 152.51049462 20.43322732 153.58055956 20.43630856 154.68305071 C20.48416912 171.79951719 20.53282823 188.91598132 20.58180541 206.03244464 C20.632391 223.71753231 20.68206541 241.40262239 20.73096704 259.08771479 C20.75831622 268.96968616 20.78603594 278.85165615 20.81480408 288.7336235 C20.88328378 312.31820848 20.94334837 335.90279281 20.98909378 359.48743343 C20.99644797 363.25800906 21.00429326 367.02858326 21.01249313 370.79915714 C21.0356808 381.52202411 21.05548977 392.24488166 21.06649265 402.9677688 C21.07124262 407.56627011 21.07753276 412.1647551 21.08801365 416.76324725 C21.09759263 421.00970499 21.10244604 425.25614106 21.1035229 429.50260922 C21.10472741 431.05826865 21.10764701 432.6139278 21.11238134 434.16958049 C21.11855085 436.28848371 21.11857243 438.40729935 21.11699677 440.52620888 C21.11855758 441.71128993 21.1201184 442.89637098 21.12172651 444.11736357 C21 447 21 447 20 450 C13.4 450 6.8 450 0 450 C-0.33 342.75 -0.66 235.5 -1 125 C-15.85 125 -30.7 125 -46 125 C-45.98839844 131.20296875 -45.97679687 137.4059375 -45.96484375 143.796875 C-45.95255689 152.44791461 -45.94402983 161.09895422 -45.9375 169.75 C-45.93664398 170.87587776 -45.93578796 172.00175552 -45.93490601 173.16175079 C-45.91030431 209.90217534 -46.10346684 246.63673858 -46.5 283.375 C-46.51195782 284.48346786 -46.52391563 285.59193573 -46.53623581 286.73399353 C-46.6818365 300.15610641 -46.83704749 313.57808713 -47 327 C-52.94 327 -58.88 327 -65 327 C-65 260.34 -65 193.68 -65 125 C-80.84 125 -96.68 125 -113 125 C-113 118.73 -113 112.46 -113 106 C-76.37 106 -39.74 106 -2 106 C-1.13758875 93.97661676 -1.13758875 93.97661676 -0.79467773 81.96533203 C-0.78477814 81.06595917 -0.77487854 80.1665863 -0.76467896 79.23995972 C-0.73362175 76.3292688 -0.7085326 73.41856167 -0.68359375 70.5078125 C-0.66297574 68.4651553 -0.64197818 66.4225019 -0.62062073 64.37985229 C-0.56589979 59.0502636 -0.51627398 53.72063966 -0.46777344 48.39099121 C-0.41718918 42.93380668 -0.36169752 37.47667217 -0.30664062 32.01953125 C-0.19967209 21.34639566 -0.09855028 10.67321665 0 0 Z " fill="#010101" transform="translate(218,69)"/>
<path d="M0 0 C0.71639648 0.27972656 1.43279297 0.55945313 2.17089844 0.84765625 C6.59150726 2.72551218 8.9144106 4.62491101 11.75 8.625 C13.41324401 9.63068242 15.07936253 10.63164799 16.75 11.625 C17.245 13.11 17.245 13.11 17.75 14.625 C18.41 14.955 19.07 15.285 19.75 15.625 C20.245 17.11 20.245 17.11 20.75 18.625 C21.41 18.955 22.07 19.285 22.75 19.625 C23.375 22.1875 23.375 22.1875 23.75 24.625 C24.41 24.625 25.07 24.625 25.75 24.625 C25.75 25.945 25.75 27.265 25.75 28.625 C26.41 28.625 27.07 28.625 27.75 28.625 C27.88277344 29.31207031 28.01554687 29.99914062 28.15234375 30.70703125 C28.41724609 32.05861328 28.41724609 32.05861328 28.6875 33.4375 C28.86152344 34.33082031 29.03554688 35.22414062 29.21484375 36.14453125 C29.72741153 38.73897171 29.72741153 38.73897171 30.75 41.625 C31.68312243 52.44563127 29.49061294 63.19470609 26.75 73.625 C26.09 73.625 25.43 73.625 24.75 73.625 C24.75 74.945 24.75 76.265 24.75 77.625 C24.09 77.625 23.43 77.625 22.75 77.625 C22.37875 78.676875 22.37875 78.676875 22 79.75 C18.93695125 86.79501213 13.66733274 93.34195266 6.5625 96.640625 C4.39555782 97.55041835 4.39555782 97.55041835 3.75 100.625 C3.09 101.285 2.43 101.945 1.75 102.625 C4.06 103.945 6.37 105.265 8.75 106.625 C8.75 107.285 8.75 107.945 8.75 108.625 C9.61625 108.99625 9.61625 108.99625 10.5 109.375 C13.04879381 110.79099656 14.69723215 112.57223215 16.75 114.625 C18.235 115.12 18.235 115.12 19.75 115.625 C21.03125 117.5859375 21.03125 117.5859375 22.25 120 C23.81135743 123.07267134 25.29467643 125.22956237 27.75 127.625 C32.59683951 137.31867902 33.04742567 146.71685461 32.9375 157.4375 C32.9365332 159.25797852 32.9365332 159.25797852 32.93554688 161.11523438 C32.88707446 170.84741746 32.88707446 170.84741746 31.75 174.625 C31.09 174.625 30.43 174.625 29.75 174.625 C29.42 176.935 29.09 179.245 28.75 181.625 C28.09 181.625 27.43 181.625 26.75 181.625 C26.75 182.945 26.75 184.265 26.75 185.625 C26.09 185.625 25.43 185.625 24.75 185.625 C24.37875 186.3984375 24.37875 186.3984375 24 187.1875 C22.35418384 190.39684151 20.5523904 193.50085664 18.75 196.625 C17.76 196.625 16.77 196.625 15.75 196.625 C15.75 197.285 15.75 197.945 15.75 198.625 C13.82285434 200.16248768 11.91320529 201.56089925 9.875 202.9375 C9.28146729 203.33976807 8.68793457 203.74203613 8.07641602 204.15649414 C-6.53385349 213.90388099 -19.85653908 214.94136551 -37 214.75 C-38.58332762 214.73994198 -40.16666148 214.73082116 -41.75 214.72265625 C-45.58361878 214.70260594 -49.41634813 214.6634219 -53.25 214.625 C-53.25 208.355 -53.25 202.085 -53.25 195.625 C-49.94162109 195.56892578 -49.94162109 195.56892578 -46.56640625 195.51171875 C-44.40168011 195.46534761 -42.23711632 195.41417126 -40.07250977 195.36254883 C-38.58205243 195.32954205 -37.09147738 195.30143673 -35.60083008 195.27856445 C-27.29686285 195.14772756 -20.07820139 194.69536711 -12.25 191.625 C-10.93 191.625 -9.61 191.625 -8.25 191.625 C-7.92 190.635 -7.59 189.645 -7.25 188.625 C-6.321875 188.17125 -5.39375 187.7175 -4.4375 187.25 C-0.96890301 185.48169565 0.47157728 183.71714512 2.75 180.625 C3.41 180.295 4.07 179.965 4.75 179.625 C5.08 178.635 5.41 177.645 5.75 176.625 C6.41 176.625 7.07 176.625 7.75 176.625 C7.75 175.635 7.75 174.645 7.75 173.625 C8.41 173.625 9.07 173.625 9.75 173.625 C13.9181772 159.85512888 14.34594686 148.25366529 7.546875 135.33984375 C4.45418214 130.1037973 0.84415041 126.02110028 -4.25 122.625 C-4.25 121.965 -4.25 121.305 -4.25 120.625 C-4.95125 120.356875 -5.6525 120.08875 -6.375 119.8125 C-9.25 118.625 -9.25 118.625 -12.1875 117.125 C-21.55825606 112.53524193 -30.46267106 112.48361408 -40.6875 112.5625 C-41.80060547 112.56701172 -42.91371094 112.57152344 -44.06054688 112.57617188 C-46.79042101 112.58788807 -49.52018174 112.60429301 -52.25 112.625 C-54.13840139 107.9148494 -54.37897127 104.34952766 -53.9375 99.3125 C-53.83824219 98.07886719 -53.73898438 96.84523438 -53.63671875 95.57421875 C-53.25 92.625 -53.25 92.625 -52.25 91.625 C-50.60885935 91.57412068 -48.96557877 91.58958491 -47.32421875 91.6328125 C-26.16802362 92.23561168 -26.16802362 92.23561168 -7.25 83.625 C-6.77691406 82.97402344 -6.30382812 82.32304687 -5.81640625 81.65234375 C-4.25 79.625 -4.25 79.625 -1.7578125 78.16015625 C4.38185937 74.40175898 7.49664614 66.0655261 9.28515625 59.32421875 C10.78122302 50.6369739 9.89614744 42.11377961 7.75 33.625 C7.09 33.625 6.43 33.625 5.75 33.625 C5.523125 32.903125 5.29625 32.18125 5.0625 31.4375 C3.01391974 27.04768515 0.06054577 24.41132746 -4.0625 21.9375 C-4.784375 21.504375 -5.50625 21.07125 -6.25 20.625 C-6.25 19.965 -6.25 19.305 -6.25 18.625 C-7.11625 18.521875 -7.9825 18.41875 -8.875 18.3125 C-12.25 17.625 -12.25 17.625 -14.93212891 16.11401367 C-19.02328394 14.27796109 -22.28516171 14.15066499 -26.7109375 14.11328125 C-27.50150543 14.09533005 -28.29207336 14.07737885 -29.1065979 14.05888367 C-31.61267891 14.00503294 -34.11857227 13.97096719 -36.625 13.9375 C-38.33205722 13.90430452 -40.03908976 13.86981281 -41.74609375 13.83398438 C-45.9140857 13.74689805 -50.08124373 13.6866177 -54.25 13.625 C-54.25 7.355 -54.25 1.085 -54.25 -5.375 C-35.11205214 -6.44827681 -18.2023661 -7.12971016 0 0 Z " fill="#010101" transform="translate(307.25,180.375)"/>
<path d="M0 0 C6.27 0 12.54 0 19 0 C19 0.99 19 1.98 19 3 C19.66 3 20.32 3 21 3 C21.02314696 14.16119097 21.04092714 25.32237625 21.05181217 36.48358631 C21.05703583 41.66590534 21.06412414 46.84820798 21.07543945 52.03051758 C21.08628664 57.02958526 21.09228074 62.02863715 21.09487724 67.02771568 C21.09672818 68.93713314 21.10034246 70.84654971 21.10573006 72.75596046 C21.11296474 75.42562366 21.11398991 78.09522119 21.11352539 80.76489258 C21.11712067 81.55827026 21.12071594 82.35164795 21.12442017 83.16906738 C21.11835448 86.38021248 21.02309085 88.93072746 20 92 C13.4 92 6.8 92 0 92 C0 61.64 0 31.28 0 0 Z " fill="#CBBB82" transform="translate(218,427)"/>
<path d="M0 0 C6.6 0 13.2 0 20 0 C20 119.13 20 238.26 20 361 C19.67 360.01 19.34 359.02 19 358 C12.73 358 6.46 358 0 358 C0 280.78 0 203.56 0 124 C0.66 124 1.32 124 2 124 C2 200.89 2 277.78 2 357 C7.28 357 12.56 357 18 357 C18 239.85 18 122.7 18 2 C12.72 2 7.44 2 2 2 C2 36.65 2 71.3 2 107 C1.01 106.67 0.02 106.34 -1 106 C-0.67 71.02 -0.34 36.04 0 0 Z " fill="#0D0D0D" transform="translate(218,69)"/>
<path d="M0 0 C6.6 0 13.2 0 20 0 C20.15916575 28.01317168 19.67034617 55.99521902 19 84 C18.67 84 18.34 84 18 84 C18 56.94 18 29.88 18 2 C12.72 2 7.44 2 2 2 C2 36.65 2 71.3 2 107 C1.01 106.67 0.02 106.34 -1 106 C-0.67 71.02 -0.34 36.04 0 0 Z " fill="#0F0F10" transform="translate(218,69)"/>
<path d="M0 0 C5.77048378 0.62950732 10.64548432 3.18032288 15.4375 6.375 C10.13868462 5.73914215 5.48159181 4.49137034 0.48828125 2.66015625 C-1.60567739 2.16324967 -1.60567739 2.16324967 -3.4140625 3.37109375 C-4.29191406 4.08458984 -4.29191406 4.08458984 -5.1875 4.8125 C-8.38538828 7.375 -8.38538828 7.375 -10.5625 7.375 C-10.81 7.973125 -11.0575 8.57125 -11.3125 9.1875 C-12.72620012 11.66147521 -14.21305383 12.80870255 -16.5625 14.375 C-17.2225 14.045 -17.8825 13.715 -18.5625 13.375 C-17.0775 12.199375 -17.0775 12.199375 -15.5625 11 C-14.5725 10.13375 -13.5825 9.2675 -12.5625 8.375 C-12.5625 7.715 -12.5625 7.055 -12.5625 6.375 C-11.73105469 5.97667969 -11.73105469 5.97667969 -10.8828125 5.5703125 C-10.15835938 5.21710938 -9.43390625 4.86390625 -8.6875 4.5 C-7.96820313 4.15195312 -7.24890625 3.80390625 -6.5078125 3.4453125 C-0.33499576 0.04902377 -0.33499576 0.04902377 0 0 Z " fill="#675D38" transform="translate(43.5625,284.625)"/>
<path d="M0 0 C0 0.33 0 0.66 0 1 C-1.43049683 1.029729 -1.43049683 1.029729 -2.88989258 1.06005859 C-6.42922299 1.13615014 -9.96814417 1.22486161 -13.50708008 1.31738281 C-15.03857339 1.35565798 -16.57015615 1.39051349 -18.10180664 1.421875 C-20.3038733 1.46755807 -22.50532496 1.52554537 -24.70703125 1.5859375 C-25.39150833 1.59748871 -26.07598541 1.60903992 -26.78120422 1.62094116 C-30.38460837 1.73273744 -31.9159183 1.94394553 -35 4 C-35 2.68 -35 1.36 -35 0 C-30.98010377 -0.16861083 -26.95996993 -0.32905633 -22.93945312 -0.48217773 C-21.57380566 -0.53531137 -20.20824074 -0.59061539 -18.84277344 -0.64819336 C-16.87198012 -0.73090914 -14.9008304 -0.80498839 -12.9296875 -0.87890625 C-11.74616699 -0.9260376 -10.56264648 -0.97316895 -9.34326172 -1.02172852 C-6.10940228 -1.00071103 -3.16723681 -0.62627785 0 0 Z " fill="#0B0B0B" transform="translate(288,175)"/>
<path d="M0 0 C1.875 0.25 1.875 0.25 4 1 C4.69937532 2.31647119 5.36729133 3.65022151 6 5 C6.99 5.33 7.98 5.66 9 6 C10.6875 7.4375 10.6875 7.4375 12 9 C12 9.66 12 10.32 12 11 C12.66 11 13.32 11 14 11 C13.67 11.99 13.34 12.98 13 14 C10.83031809 11.85714108 8.66416525 9.71091768 6.5 7.5625 C5.87996094 6.95083984 5.25992187 6.33917969 4.62109375 5.70898438 C4.03457031 5.12568359 3.44804687 4.54238281 2.84375 3.94140625 C2.02680664 3.13231812 2.02680664 3.13231812 1.19335938 2.30688477 C0 1 0 1 0 0 Z " fill="#060607" transform="translate(392,71)"/>
<path d="M0 0 C3.98911017 1.29376546 5.64627147 2.57639486 8 6 C8.99 6.66 9.98 7.32 11 8 C10.34 8.66 9.68 9.32 9 10 C7.49410612 8.71520959 5.99542625 7.42195918 4.5 6.125 C3.6646875 5.40570313 2.829375 4.68640625 1.96875 3.9453125 C1.3190625 3.30335938 0.669375 2.66140625 0 2 C0 1.34 0 0.68 0 0 Z " fill="#08080A" transform="translate(311,183)"/>
<path d="M0 0 C3.44795223 1.53242321 6.2199038 3.44531701 9 6 C9.64453125 8.1328125 9.64453125 8.1328125 10 10 C2.51708428 3.84965831 2.51708428 3.84965831 0 0 Z " fill="#070707" transform="translate(49,258)"/>
<path d="M0 0 C4.75 0.75 4.75 0.75 7 3 C6.67 3.99 6.34 4.98 6 6 C3.97945196 4.35830472 1.97956942 2.69088222 0 1 C0 0.67 0 0.34 0 0 Z " fill="#07070A" transform="translate(375,57)"/>
</svg>
