<?xml version="1.0" encoding="UTF-8"?>
<svg version="1.1" xmlns="http://www.w3.org/2000/svg" width="750" height="682">
<path d="M0 0 C18.04351088 -0.46720839 36.00435776 1.29033234 53.87158203 3.69482422 C56.57456391 4.10458261 56.57456391 4.10458261 58.72314453 4.06201172 C58.72314453 4.72201172 58.72314453 5.38201172 58.72314453 6.06201172 C60.20814453 5.56701172 60.20814453 5.56701172 61.72314453 5.06201172 C64.46512359 5.72921687 67.09958738 6.46618082 69.78564453 7.31201172 C70.54627197 7.54364014 71.30689941 7.77526855 72.09057617 8.01391602 C74.30388211 8.68894256 76.51373644 9.37435285 78.72314453 10.06201172 C80.70152538 10.66874666 82.68051601 11.27350497 84.66064453 11.87451172 C85.78792969 12.22449219 85.78792969 12.22449219 86.93798828 12.58154297 C88.73690923 13.14864428 88.73690923 13.14864428 90.72314453 13.06201172 C90.72314453 13.72201172 90.72314453 14.38201172 90.72314453 15.06201172 C92.20814453 14.56701172 92.20814453 14.56701172 93.72314453 14.06201172 C93.72314453 14.72201172 93.72314453 15.38201172 93.72314453 16.06201172 C94.43857422 16.19478516 95.15400391 16.32755859 95.89111328 16.46435547 C98.66502775 17.04974707 101.32613728 17.79359616 104.03564453 18.62451172 C105.36015625 19.02863281 105.36015625 19.02863281 106.71142578 19.44091797 C107.37529297 19.64587891 108.03916016 19.85083984 108.72314453 20.06201172 C108.72314453 20.72201172 108.72314453 21.38201172 108.72314453 22.06201172 C109.89876953 22.40232422 109.89876953 22.40232422 111.09814453 22.74951172 C115.85097796 24.4703652 120.23261581 26.75476153 124.72314453 29.06201172 C126.26381593 29.83483237 127.80538526 30.60586747 129.34814453 31.37451172 C130.46189453 31.93138672 131.57564453 32.48826172 132.72314453 33.06201172 C132.72314453 33.72201172 132.72314453 34.38201172 132.72314453 35.06201172 C135.37543265 36.13726366 138.00682907 37.15657323 140.72314453 38.06201172 C141.72314453 39.06201172 142.72314453 40.06201172 143.72314453 41.06201172 C146.04786584 42.55221769 148.34975853 43.88630066 150.84814453 45.06201172 C152.92896152 46.17178078 154.12203371 47.33281203 155.72314453 49.06201172 C158.87100792 52.37555213 161.77937893 54.778779 165.72314453 57.06201172 C166.74183115 58.0429692 167.74666437 59.0390325 168.72314453 60.06201172 C169.38314453 60.39201172 170.04314453 60.72201172 170.72314453 61.06201172 C170.72314453 61.72201172 170.72314453 62.38201172 170.72314453 63.06201172 C171.55845703 63.37138672 171.55845703 63.37138672 172.41064453 63.68701172 C174.67011264 65.03047924 175.72301013 66.11358874 177.34814453 68.12451172 C179.3943385 71.07025885 179.3943385 71.07025885 181.72314453 72.06201172 C181.72314453 72.72201172 181.72314453 73.38201172 181.72314453 74.06201172 C182.71314453 74.39201172 183.70314453 74.72201172 184.72314453 75.06201172 C184.72314453 75.72201172 184.72314453 76.38201172 184.72314453 77.06201172 C185.38314453 77.06201172 186.04314453 77.06201172 186.72314453 77.06201172 C187.72957204 78.72480499 188.7289986 80.39184656 189.72314453 82.06201172 C190.71314453 82.72201172 191.70314453 83.38201172 192.72314453 84.06201172 C193.40684903 85.38668918 194.07278639 86.72064804 194.72314453 88.06201172 C195.19751953 88.53638672 195.67189453 89.01076172 196.16064453 89.49951172 C198.12424227 91.46310946 199.31666353 93.67710916 200.72314453 96.06201172 C201.38314453 96.72201172 202.04314453 97.38201172 202.72314453 98.06201172 C205.72314453 101.6389348 205.72314453 101.6389348 205.72314453 105.06201172 C206.38314453 105.06201172 207.04314453 105.06201172 207.72314453 105.06201172 C207.84689453 105.86638672 207.97064453 106.67076172 208.09814453 107.49951172 C208.30439453 108.34513672 208.51064453 109.19076172 208.72314453 110.06201172 C209.38314453 110.39201172 210.04314453 110.72201172 210.72314453 111.06201172 C213.0031786 114.34526078 214.15832839 117.10829873 214.72314453 121.06201172 C215.38314453 121.06201172 216.04314453 121.06201172 216.72314453 121.06201172 C216.84431641 121.62791016 216.96548828 122.19380859 217.09033203 122.77685547 C217.25791016 123.51033203 217.42548828 124.24380859 217.59814453 124.99951172 C217.76056641 125.73041016 217.92298828 126.46130859 218.09033203 127.21435547 C218.55275976 129.26901466 218.55275976 129.26901466 220.72314453 130.06201172 C220.72314453 131.05201172 220.72314453 132.04201172 220.72314453 133.06201172 C221.38314453 133.39201172 222.04314453 133.72201172 222.72314453 134.06201172 C223.45223671 136.07569488 224.16416404 138.09670841 224.80517578 140.14013672 C225.6851256 142.94099828 226.61943866 145.71997866 227.56640625 148.4987793 C238.21801094 179.9348721 240.31067722 212.72753676 226.09814453 243.18701172 C225.70175781 244.04149902 225.30537109 244.89598633 224.89697266 245.77636719 C224.51734375 246.57445801 224.13771484 247.37254883 223.74658203 248.19482422 C223.40546387 248.91557129 223.0643457 249.63631836 222.71289062 250.37890625 C221.72314453 252.06201172 221.72314453 252.06201172 219.72314453 253.06201172 C219.39314453 254.05201172 219.06314453 255.04201172 218.72314453 256.06201172 C217.4365529 257.44050275 216.09401368 258.76730197 214.72314453 260.06201172 C214.02189453 260.78388672 213.32064453 261.50576172 212.59814453 262.24951172 C210.00485538 264.8266433 207.34234724 267.32720348 204.66064453 269.81201172 C203.82404297 270.59060547 202.98744141 271.36919922 202.12548828 272.17138672 C199.85502331 273.95822419 198.53977768 274.67171613 195.72314453 275.06201172 C195.72314453 276.38201172 195.72314453 277.70201172 195.72314453 279.06201172 C196.32126953 279.20638672 196.91939453 279.35076172 197.53564453 279.49951172 C201.55853887 280.53397026 203.29179719 281.44581578 205.91064453 284.62451172 C208.45381526 287.63644485 211.07868587 290.44487265 213.91064453 293.18701172 C217.04842004 296.28213785 219.53567552 299.23394096 221.72314453 303.06201172 C221.72314453 303.72201172 221.72314453 304.38201172 221.72314453 305.06201172 C222.38314453 305.06201172 223.04314453 305.06201172 223.72314453 305.06201172 C223.84689453 305.86638672 223.97064453 306.67076172 224.09814453 307.49951172 C224.30439453 308.34513672 224.51064453 309.19076172 224.72314453 310.06201172 C225.38314453 310.39201172 226.04314453 310.72201172 226.72314453 311.06201172 C229.72314453 317.29278095 229.72314453 317.29278095 229.72314453 321.06201172 C230.38314453 321.39201172 231.04314453 321.72201172 231.72314453 322.06201172 C232.28564453 323.99560547 232.28564453 323.99560547 232.72314453 326.49951172 C233.4126351 330.4063434 233.4126351 330.4063434 234.25830078 334.28076172 C241.50489704 364.77014449 233.42526143 396.50399041 222.72314453 425.06201172 C222.43342773 425.83722168 222.14371094 426.61243164 221.84521484 427.41113281 C221.13977437 429.29547763 220.43174479 431.17885285 219.72314453 433.06201172 C219.06314453 433.06201172 218.40314453 433.06201172 217.72314453 433.06201172 C217.33835937 434.58568359 217.33835937 434.58568359 216.94580078 436.14013672 C215.84231066 440.00186603 214.13137477 443.30666273 212.16064453 446.81201172 C209.63675686 451.30257726 209.63675686 451.30257726 207.72314453 456.06201172 C207.06314453 456.06201172 206.40314453 456.06201172 205.72314453 456.06201172 C205.46919922 456.77873047 205.21525391 457.49544922 204.95361328 458.23388672 C203.62659606 461.28391996 202.01985376 463.64560874 200.03564453 466.31201172 C199.32150391 467.27365234 198.60736328 468.23529297 197.87158203 469.22607422 C195.42160162 472.46004836 192.95446038 475.67801572 190.44580078 478.86669922 C189.25506933 480.3841393 188.07608407 481.91084372 186.90673828 483.44482422 C183.72020128 487.61554004 180.4864347 491.40940655 176.72314453 495.06201172 C176.39314453 495.72201172 176.06314453 496.38201172 175.72314453 497.06201172 C175.00126953 497.45388672 174.27939453 497.84576172 173.53564453 498.24951172 C170.94392205 499.91973287 169.63157035 501.21962861 167.72314453 503.56201172 C165.32693222 506.50169486 163.05844178 508.2090688 159.72314453 510.06201172 C159.06314453 511.05201172 158.40314453 512.04201172 157.72314453 513.06201172 C156.06874346 514.08217585 154.39909503 515.07765015 152.72314453 516.06201172 C150.89218148 517.40528586 149.10199345 518.79558393 147.30664062 520.18603516 C139.43681809 526.2742622 131.46888492 531.30154621 122.72314453 536.06201172 C121.53284876 536.75383836 120.34536728 537.45052806 119.16064453 538.15185547 C102.44782565 548.02335649 102.44782565 548.02335649 93.94580078 549.56591797 C92.84558594 549.81148437 92.84558594 549.81148437 91.72314453 550.06201172 C91.39314453 550.72201172 91.06314453 551.38201172 90.72314453 552.06201172 C88.54345703 552.91357422 88.54345703 552.91357422 85.84814453 553.68701172 C84.52169922 554.07759766 84.52169922 554.07759766 83.16845703 554.47607422 C80.72314453 555.06201172 80.72314453 555.06201172 77.72314453 555.06201172 C77.39314453 555.72201172 77.06314453 556.38201172 76.72314453 557.06201172 C74.49609375 557.79223633 74.49609375 557.79223633 71.52783203 558.46435547 C70.43229004 558.71362793 69.33674805 558.96290039 68.20800781 559.21972656 C12.92901589 571.16082627 -40.19717926 567.52778975 -92.14794922 543.92919922 C-99.1128514 540.74794161 -99.1128514 540.74794161 -106.27685547 538.06201172 C-106.27685547 537.40201172 -106.27685547 536.74201172 -106.27685547 536.06201172 C-107.26685547 536.06201172 -108.25685547 536.06201172 -109.27685547 536.06201172 C-109.27685547 535.40201172 -109.27685547 534.74201172 -109.27685547 534.06201172 C-110.15986328 533.80806641 -111.04287109 533.55412109 -111.95263672 533.29248047 C-115.35021728 532.03485664 -117.60627016 530.57536712 -120.46435547 528.37451172 C-124.26604747 525.51157313 -128.09865325 522.86879001 -132.15185547 520.37451172 C-136.05696594 517.92554413 -139.13020146 515.45708578 -142.27685547 512.06201172 C-143.80430509 510.6300277 -145.34733802 509.21456512 -146.90185547 507.81201172 C-147.65724609 507.12623047 -148.41263672 506.44044922 -149.19091797 505.73388672 C-151.26542976 503.87328598 -151.26542976 503.87328598 -154.27685547 503.06201172 C-154.27685547 502.07201172 -154.27685547 501.08201172 -154.27685547 500.06201172 C-154.81955078 499.85447266 -155.36224609 499.64693359 -155.92138672 499.43310547 C-159.1777005 497.53763924 -161.47359616 494.89898666 -163.96435547 492.12451172 C-164.46257812 491.58632813 -164.96080078 491.04814453 -165.47412109 490.49365234 C-167.70827187 488.03517707 -169.21492886 486.24779154 -170.27685547 483.06201172 C-170.93685547 483.06201172 -171.59685547 483.06201172 -172.27685547 483.06201172 C-173.6344548 481.38411298 -174.91397352 479.64258084 -176.15185547 477.87451172 C-178.21303707 474.94732035 -180.25646873 472.08673682 -182.53466797 469.32373047 C-184.27685547 467.06201172 -184.27685547 467.06201172 -184.27685547 465.06201172 C-184.93685547 465.06201172 -185.59685547 465.06201172 -186.27685547 465.06201172 C-186.57978516 464.49353516 -186.88271484 463.92505859 -187.19482422 463.33935547 C-187.61376953 462.56720703 -188.03271484 461.79505859 -188.46435547 460.99951172 C-189.0734375 459.86835937 -189.0734375 459.86835937 -189.69482422 458.71435547 C-190.94240745 456.62272827 -192.22373943 454.76243105 -193.67529297 452.81982422 C-196.58879927 448.79563525 -198.64798659 444.50379321 -200.71435547 439.99951172 C-201.10268555 439.16387695 -201.49101562 438.32824219 -201.89111328 437.46728516 C-203.03008126 435.00345302 -204.15612915 432.53418702 -205.27685547 430.06201172 C-205.5780127 429.40152832 -205.87916992 428.74104492 -206.18945312 428.06054688 C-220.47957533 396.51410915 -228.67832752 357.35023149 -216.43115234 323.74121094 C-210.14867754 307.55150011 -202.21304334 294.78121357 -188.64990234 283.72412109 C-185.70195335 281.30192096 -182.92384065 278.81055988 -180.27685547 276.06201172 C-181.26685547 275.73201172 -182.25685547 275.40201172 -183.27685547 275.06201172 C-184.29983469 274.08553155 -185.29589799 273.08069833 -186.27685547 272.06201172 C-188.88153407 269.91315187 -191.46563737 267.93615712 -194.27685547 266.06201172 C-194.27685547 265.40201172 -194.27685547 264.74201172 -194.27685547 264.06201172 C-195.26685547 263.73201172 -196.25685547 263.40201172 -197.27685547 263.06201172 C-198.30698824 261.41379928 -199.30800175 259.7469747 -200.27685547 258.06201172 C-200.93685547 257.73201172 -201.59685547 257.40201172 -202.27685547 257.06201172 C-202.94352214 255.72867839 -203.6101888 254.39534505 -204.27685547 253.06201172 C-204.77185547 252.58763672 -205.26685547 252.11326172 -205.77685547 251.62451172 C-208.18780983 249.11310092 -209.03210847 246.16337322 -209.77685547 242.81201172 C-209.94185547 242.23451172 -210.10685547 241.65701172 -210.27685547 241.06201172 C-210.93685547 240.73201172 -211.59685547 240.40201172 -212.27685547 240.06201172 C-213.27685547 237.98779297 -213.27685547 237.98779297 -214.27685547 235.37451172 C-214.77185547 234.10027344 -214.77185547 234.10027344 -215.27685547 232.80029297 C-220.0688152 219.67855949 -220.55669068 207.04299202 -220.40185547 193.24951172 C-220.39179444 191.67074142 -220.38267417 190.09196485 -220.37451172 188.51318359 C-220.35277111 184.69596718 -220.31841812 180.87906163 -220.27685547 177.06201172 C-219.61685547 177.06201172 -218.95685547 177.06201172 -218.27685547 177.06201172 C-218.23947266 176.14419922 -218.20208984 175.22638672 -218.16357422 174.28076172 C-217.53455122 162.53899917 -217.53455122 162.53899917 -215.22998047 157.31982422 C-213.87680726 154.11435653 -212.84688255 150.80734357 -211.77685547 147.49951172 C-210.17096876 142.55317478 -208.50400129 137.75915702 -206.27685547 133.06201172 C-205.61685547 132.73201172 -204.95685547 132.40201172 -204.27685547 132.06201172 C-203.75091797 130.29857422 -203.75091797 130.29857422 -203.21435547 128.49951172 C-201.43612478 122.73655466 -198.43125427 117.74317213 -195.41333008 112.55981445 C-193.77831033 109.74853128 -192.30862996 107.15733519 -191.27685547 104.06201172 C-189.94352214 102.72867839 -188.6101888 101.39534505 -187.27685547 100.06201172 C-186.78185547 98.57701172 -186.78185547 98.57701172 -186.27685547 97.06201172 C-185.61685547 96.40201172 -184.95685547 95.74201172 -184.27685547 95.06201172 C-183.84373047 94.29888672 -183.41060547 93.53576172 -182.96435547 92.74951172 C-181.0546047 89.70805679 -178.83200132 87.58812183 -176.27685547 85.06201172 C-174.35963239 83.01904669 -172.47661799 80.94514194 -170.58935547 78.87451172 C-165.90908831 73.76165781 -161.10527272 68.82622693 -156.14013672 63.98779297 C-154.21744265 62.19363483 -154.21744265 62.19363483 -153.27685547 60.06201172 C-151.62023786 59.04545091 -149.95160691 58.04841193 -148.27685547 57.06201172 C-146.50414032 55.73772008 -144.75396678 54.38275207 -143.02685547 52.99951172 C-142.15544922 52.30728516 -141.28404297 51.61505859 -140.38623047 50.90185547 C-138.20462672 49.2342963 -138.20462672 49.2342963 -137.27685547 47.06201172 C-135.65018999 46.13704507 -134.02118162 45.21427061 -132.35888672 44.35498047 C-130.01657176 42.90037212 -128.02172305 41.14805779 -125.92504883 39.3659668 C-123.1832399 37.19680646 -120.1974017 35.51489778 -117.15185547 33.81201172 C-116.54470703 33.46138672 -115.93755859 33.11076172 -115.31201172 32.74951172 C-112.35729143 31.07581395 -109.64638666 29.63198217 -106.27685547 29.06201172 C-106.27685547 28.40201172 -106.27685547 27.74201172 -106.27685547 27.06201172 C-103.37085286 25.80536194 -101.48080962 25.06201172 -98.27685547 25.06201172 C-98.27685547 24.40201172 -98.27685547 23.74201172 -98.27685547 23.06201172 C-97.69419922 22.83126953 -97.11154297 22.60052734 -96.51123047 22.36279297 C-90.78446012 20.08469093 -85.09583744 17.73212322 -79.42919922 15.30810547 C-72.25430602 12.47193331 -64.93038868 10.35532636 -57.46435547 8.43701172 C-56.63226563 8.22044922 -55.80017578 8.00388672 -54.94287109 7.78076172 C-52.72189299 7.20369925 -50.50022073 6.62980306 -48.27685547 6.06201172 C-47.30304932 5.80991943 -47.30304932 5.80991943 -46.30957031 5.55273438 C-31.00236213 1.85738385 -15.68128492 0.42709054 0 0 Z M-39.46435547 36.43701172 C-40.35960937 36.64583984 -41.25486328 36.85466797 -42.17724609 37.06982422 C-48.28370656 38.51597515 -54.28655734 40.19282508 -60.27685547 42.06201172 C-60.27685547 42.72201172 -60.27685547 43.38201172 -60.27685547 44.06201172 C-61.26685547 43.73201172 -62.25685547 43.40201172 -63.27685547 43.06201172 C-77.30911979 46.87878761 -91.49002632 55.28496523 -103.64794922 63.04638672 C-105.27685547 64.06201172 -105.27685547 64.06201172 -107.27685547 65.06201172 C-107.27685547 65.72201172 -107.27685547 66.38201172 -107.27685547 67.06201172 C-107.85435547 67.14451172 -108.43185547 67.22701172 -109.02685547 67.31201172 C-111.90442438 68.27120136 -113.18211797 69.90181367 -115.27685547 72.06201172 C-117.52685547 73.31201172 -117.52685547 73.31201172 -119.27685547 74.06201172 C-119.27685547 74.72201172 -119.27685547 75.38201172 -119.27685547 76.06201172 C-120.23591797 76.21669922 -120.23591797 76.21669922 -121.21435547 76.37451172 C-121.89498047 76.60138672 -122.57560547 76.82826172 -123.27685547 77.06201172 C-123.60685547 78.05201172 -123.93685547 79.04201172 -124.27685547 80.06201172 C-126.33935547 80.74951172 -126.33935547 80.74951172 -128.27685547 81.06201172 C-128.27685547 81.72201172 -128.27685547 82.38201172 -128.27685547 83.06201172 C-129.26685547 83.39201172 -130.25685547 83.72201172 -131.27685547 84.06201172 C-132.63510429 85.36995503 -133.96141684 86.71102069 -135.27685547 88.06201172 C-136.54279912 89.15105495 -137.81418901 90.23378216 -139.08935547 91.31201172 C-143.18784913 94.87224168 -147.05213662 98.67840953 -150.27685547 103.06201172 C-150.27685547 103.72201172 -150.27685547 104.38201172 -150.27685547 105.06201172 C-150.93685547 105.53638672 -151.59685547 106.01076172 -152.27685547 106.49951172 C-152.93685547 107.01513672 -153.59685547 107.53076172 -154.27685547 108.06201172 C-154.27685547 109.05201172 -154.27685547 110.04201172 -154.27685547 111.06201172 C-155.26685547 111.39201172 -156.25685547 111.72201172 -157.27685547 112.06201172 C-159.47099732 115.03055657 -161.10745527 117.55381113 -162.27685547 121.06201172 C-163.26213577 122.07651786 -164.26321782 123.07583794 -165.27685547 124.06201172 C-166.79624531 126.54311274 -168.24534705 129.01868373 -169.65185547 131.56201172 C-170.05178711 132.28106689 -170.45171875 133.00012207 -170.86376953 133.7409668 C-173.97410922 139.39251212 -176.80854999 145.09837855 -179.27685547 151.06201172 C-179.70740234 152.08681641 -180.13794922 153.11162109 -180.58154297 154.16748047 C-184.38410209 163.58387687 -186.66190922 173.05486616 -188.27685547 183.06201172 C-188.46248047 184.17576172 -188.64810547 185.28951172 -188.83935547 186.43701172 C-191.06294863 205.61094618 -188.08523136 224.37365993 -178.27685547 241.06201172 C-177.94685547 241.72201172 -177.61685547 242.38201172 -177.27685547 243.06201172 C-176.61685547 243.06201172 -175.95685547 243.06201172 -175.27685547 243.06201172 C-175.21498047 243.59826172 -175.15310547 244.13451172 -175.08935547 244.68701172 C-172.26660616 252.9381251 -161.54917413 262.09633247 -154.08935547 266.29248047 C-152.75130053 266.93445168 -151.40195036 267.55385732 -150.03857422 268.14013672 C-148.05628445 269.17743247 -146.84598623 270.48439917 -145.27685547 272.06201172 C-143.29049249 272.76827411 -141.28837288 273.43094743 -139.27685547 274.06201172 C-137.26761992 275.04332334 -135.26620105 276.04098079 -133.27685547 277.06201172 C-134.38802734 277.54669922 -135.49919922 278.03138672 -136.64404297 278.53076172 C-151.87619009 284.93674751 -151.87619009 284.93674751 -162.27685547 297.06201172 C-164.40185547 298.31201172 -164.40185547 298.31201172 -166.27685547 299.06201172 C-166.27685547 299.72201172 -166.27685547 300.38201172 -166.27685547 301.06201172 C-167.59685547 301.72201172 -168.91685547 302.38201172 -170.27685547 303.06201172 C-170.27685547 303.72201172 -170.27685547 304.38201172 -170.27685547 305.06201172 C-170.93685547 305.06201172 -171.59685547 305.06201172 -172.27685547 305.06201172 C-174.31855032 307.96750054 -175.27685547 309.46343218 -175.27685547 313.06201172 C-175.93685547 313.06201172 -176.59685547 313.06201172 -177.27685547 313.06201172 C-182.29556253 321.81003469 -185.89365284 330.24803683 -188.27685547 340.06201172 C-188.48568359 340.89345703 -188.69451172 341.72490234 -188.90966797 342.58154297 C-195.32649526 371.99953286 -184.94454088 403.46238754 -170.28662109 428.75341797 C-168.14971481 432.46382774 -166.15513377 436.2112468 -164.27685547 440.06201172 C-163.61685547 440.06201172 -162.95685547 440.06201172 -162.27685547 440.06201172 C-162.12216797 440.89732422 -162.12216797 440.89732422 -161.96435547 441.74951172 C-161.13507138 444.53892182 -159.93386491 446.67591812 -158.27685547 449.06201172 C-157.61685547 449.06201172 -156.95685547 449.06201172 -156.27685547 449.06201172 C-156.27685547 449.72201172 -156.27685547 450.38201172 -156.27685547 451.06201172 C-155.61685547 451.06201172 -154.95685547 451.06201172 -154.27685547 451.06201172 C-154.21498047 451.59826172 -154.15310547 452.13451172 -154.08935547 452.68701172 C-152.75345972 456.59193774 -150.01345846 460.19371022 -146.27685547 462.06201172 C-145.78185547 463.54701172 -145.78185547 463.54701172 -145.27685547 465.06201172 C-144.61685547 465.06201172 -143.95685547 465.06201172 -143.27685547 465.06201172 C-143.00873047 465.70138672 -142.74060547 466.34076172 -142.46435547 466.99951172 C-141.39017795 469.39332858 -141.39017795 469.39332858 -138.27685547 470.06201172 C-137.56978107 471.37436381 -136.90671497 472.71090135 -136.27685547 474.06201172 C-131.10731703 480.25641492 -122.45274202 489.87488065 -114.27685547 491.06201172 C-114.27685547 491.72201172 -114.27685547 492.38201172 -114.27685547 493.06201172 C-110.82483713 496.36491364 -110.82483713 496.36491364 -106.27685547 497.06201172 C-105.78185547 498.54701172 -105.78185547 498.54701172 -105.27685547 500.06201172 C-81.22825879 519.17508152 -46.17560039 529.18624849 -16.27685547 533.06201172 C-15.00970703 533.23216797 -13.74255859 533.40232422 -12.43701172 533.57763672 C18.12388768 536.92681882 51.29744041 532.94748101 79.72314453 521.06201172 C81.34800962 520.43666106 82.97301096 519.81166433 84.59814453 519.18701172 C100.27233393 512.92598241 100.27233393 512.92598241 113.72314453 503.06201172 C114.34189453 502.93826172 114.96064453 502.81451172 115.59814453 502.68701172 C117.88608727 502.19835156 117.88608727 502.19835156 119.59814453 500.18701172 C121.72314453 498.06201172 121.72314453 498.06201172 124.53564453 496.67919922 C134.4070899 491.67089238 142.70216025 482.65258876 150.72314453 475.06201172 C151.21862793 474.59520996 151.71411133 474.1284082 152.22460938 473.64746094 C153.65056547 472.29588617 155.06216258 470.92921144 156.47314453 469.56201172 C157.29298828 468.76794922 158.11283203 467.97388672 158.95751953 467.15576172 C161.04547585 465.13625073 161.04547585 465.13625073 160.72314453 462.06201172 C161.36251953 461.81451172 162.00189453 461.56701172 162.66064453 461.31201172 C164.91949567 460.27387977 164.91949567 460.27387977 165.22314453 458.06201172 C165.38814453 457.40201172 165.55314453 456.74201172 165.72314453 456.06201172 C166.30580078 455.81322266 166.88845703 455.56443359 167.48876953 455.30810547 C170.66167642 453.53859971 171.99632754 451.14464878 173.97314453 448.12451172 C174.67955078 447.06361328 175.38595703 446.00271484 176.11376953 444.90966797 C177.96915348 442.17188057 177.96915348 442.17188057 177.72314453 439.06201172 C178.38314453 439.06201172 179.04314453 439.06201172 179.72314453 439.06201172 C182.00049463 436.24691178 182.00049463 436.24691178 181.72314453 433.06201172 C182.38314453 433.06201172 183.04314453 433.06201172 183.72314453 433.06201172 C185.74432472 428.73831491 187.73947845 424.40301619 189.72314453 420.06201172 C190.02768555 419.39911133 190.33222656 418.73621094 190.64599609 418.05322266 C194.40715142 409.83088624 197.61518223 401.88322975 199.72314453 393.06201172 C200.24163523 391.26966571 200.76251834 389.47801026 201.28564453 387.68701172 C207.1146148 365.87439138 207.5925388 338.74689929 196.27783203 318.47216797 C195.50826172 317.27914062 195.50826172 317.27914062 194.72314453 316.06201172 C194.16755859 315.15322266 193.61197266 314.24443359 193.03955078 313.30810547 C192.46076172 312.38126953 191.88197266 311.45443359 191.28564453 310.49951172 C190.70943359 309.57009766 190.13322266 308.64068359 189.53955078 307.68310547 C187.78296118 305.14832778 186.04493748 303.08821707 183.72314453 301.06201172 C183.06314453 301.06201172 182.40314453 301.06201172 181.72314453 301.06201172 C181.47564453 300.48451172 181.22814453 299.90701172 180.97314453 299.31201172 C179.52920754 296.71292513 177.98792466 294.98364334 175.72314453 293.06201172 C174.73314453 293.06201172 173.74314453 293.06201172 172.72314453 293.06201172 C172.50787109 292.47419922 172.29259766 291.88638672 172.07080078 291.28076172 C168.08482667 284.71834637 156.83608599 280.6296879 149.72314453 278.06201172 C149.06314453 278.06201172 148.40314453 278.06201172 147.72314453 278.06201172 C147.72314453 277.40201172 147.72314453 276.74201172 147.72314453 276.06201172 C148.94001953 275.71138672 150.15689453 275.36076172 151.41064453 274.99951172 C163.14448504 271.06359356 174.34107816 264.22814666 182.72314453 255.06201172 C182.72314453 254.40201172 182.72314453 253.74201172 182.72314453 253.06201172 C183.31611328 252.81322266 183.90908203 252.56443359 184.52001953 252.30810547 C187.04093335 250.88226946 188.26132365 249.44584459 189.97314453 247.12451172 C190.49392578 246.43486328 191.01470703 245.74521484 191.55126953 245.03466797 C192.97851224 243.01455699 192.97851224 243.01455699 192.72314453 240.06201172 C193.38314453 239.73201172 194.04314453 239.40201172 194.72314453 239.06201172 C196.16775275 236.41356332 197.47505552 233.80238108 198.72314453 231.06201172 C199.25681641 229.89025391 199.25681641 229.89025391 199.80126953 228.69482422 C204.06664863 218.73166259 205.07066953 208.88505741 204.97314453 198.12451172 C204.96855225 197.07489258 204.96395996 196.02527344 204.95922852 194.94384766 C204.87547535 187.80208723 204.43744111 181.01930294 202.72314453 174.06201172 C202.57780273 173.45349365 202.43246094 172.84497559 202.28271484 172.21801758 C201.19870655 168.04136957 199.76781394 163.9687817 198.41064453 159.87451172 C198.11480469 158.96636719 197.81896484 158.05822266 197.51416016 157.12255859 C195.57365606 151.26751708 193.34320975 145.64627781 190.72314453 140.06201172 C190.06314453 140.06201172 189.40314453 140.06201172 188.72314453 140.06201172 C188.62001953 139.36076172 188.51689453 138.65951172 188.41064453 137.93701172 C187.25248667 133.09380613 185.31137919 129.47937806 181.72314453 126.06201172 C181.72314453 125.40201172 181.72314453 124.74201172 181.72314453 124.06201172 C181.06314453 124.06201172 180.40314453 124.06201172 179.72314453 124.06201172 C179.63548828 123.51416016 179.54783203 122.96630859 179.45751953 122.40185547 C177.56849747 116.38310964 172.43900699 110.52149934 167.91064453 106.18701172 C165.62944 103.97098446 164.35135058 101.77568846 162.72314453 99.06201172 C160.42790182 96.5313595 158.53929905 94.47008898 155.47314453 92.93701172 C153.72314453 92.06201172 153.72314453 92.06201172 152.72314453 89.06201172 C152.06314453 89.06201172 151.40314453 89.06201172 150.72314453 89.06201172 C150.72314453 88.40201172 150.72314453 87.74201172 150.72314453 87.06201172 C150.06314453 87.06201172 149.40314453 87.06201172 148.72314453 87.06201172 C148.38283203 86.16482422 148.38283203 86.16482422 148.03564453 85.24951172 C146.36414816 82.46368444 144.51750414 81.6866394 141.72314453 80.06201172 C140.05647786 78.39534505 138.3898112 76.72867839 136.72314453 75.06201172 C126.25474763 65.54205124 126.25474763 65.54205124 113.72314453 61.06201172 C113.72314453 60.40201172 113.72314453 59.74201172 113.72314453 59.06201172 C66.27312212 34.14412285 13.15811206 23.97672343 -39.46435547 36.43701172 Z " fill="#D4C285" transform="translate(506.27685546875,67.93798828125)"/>
<path d="M0 0 C18.04351088 -0.46720839 36.00435776 1.29033234 53.87158203 3.69482422 C56.57456391 4.10458261 56.57456391 4.10458261 58.72314453 4.06201172 C58.72314453 4.72201172 58.72314453 5.38201172 58.72314453 6.06201172 C60.20814453 5.56701172 60.20814453 5.56701172 61.72314453 5.06201172 C64.46512359 5.72921687 67.09958738 6.46618082 69.78564453 7.31201172 C70.54627197 7.54364014 71.30689941 7.77526855 72.09057617 8.01391602 C74.30388211 8.68894256 76.51373644 9.37435285 78.72314453 10.06201172 C80.70152538 10.66874666 82.68051601 11.27350497 84.66064453 11.87451172 C85.78792969 12.22449219 85.78792969 12.22449219 86.93798828 12.58154297 C88.73690923 13.14864428 88.73690923 13.14864428 90.72314453 13.06201172 C90.72314453 13.72201172 90.72314453 14.38201172 90.72314453 15.06201172 C92.20814453 14.56701172 92.20814453 14.56701172 93.72314453 14.06201172 C93.72314453 14.72201172 93.72314453 15.38201172 93.72314453 16.06201172 C94.43857422 16.19478516 95.15400391 16.32755859 95.89111328 16.46435547 C98.66502775 17.04974707 101.32613728 17.79359616 104.03564453 18.62451172 C105.36015625 19.02863281 105.36015625 19.02863281 106.71142578 19.44091797 C107.37529297 19.64587891 108.03916016 19.85083984 108.72314453 20.06201172 C108.72314453 20.72201172 108.72314453 21.38201172 108.72314453 22.06201172 C109.89876953 22.40232422 109.89876953 22.40232422 111.09814453 22.74951172 C115.85097796 24.4703652 120.23261581 26.75476153 124.72314453 29.06201172 C126.26381593 29.83483237 127.80538526 30.60586747 129.34814453 31.37451172 C130.46189453 31.93138672 131.57564453 32.48826172 132.72314453 33.06201172 C132.72314453 33.72201172 132.72314453 34.38201172 132.72314453 35.06201172 C135.37543265 36.13726366 138.00682907 37.15657323 140.72314453 38.06201172 C141.72314453 39.06201172 142.72314453 40.06201172 143.72314453 41.06201172 C146.04786584 42.55221769 148.34975853 43.88630066 150.84814453 45.06201172 C152.92896152 46.17178078 154.12203371 47.33281203 155.72314453 49.06201172 C158.87100792 52.37555213 161.77937893 54.778779 165.72314453 57.06201172 C166.74183115 58.0429692 167.74666437 59.0390325 168.72314453 60.06201172 C169.38314453 60.39201172 170.04314453 60.72201172 170.72314453 61.06201172 C170.72314453 61.72201172 170.72314453 62.38201172 170.72314453 63.06201172 C171.55845703 63.37138672 171.55845703 63.37138672 172.41064453 63.68701172 C174.67011264 65.03047924 175.72301013 66.11358874 177.34814453 68.12451172 C179.3943385 71.07025885 179.3943385 71.07025885 181.72314453 72.06201172 C181.72314453 72.72201172 181.72314453 73.38201172 181.72314453 74.06201172 C182.71314453 74.39201172 183.70314453 74.72201172 184.72314453 75.06201172 C184.72314453 75.72201172 184.72314453 76.38201172 184.72314453 77.06201172 C185.38314453 77.06201172 186.04314453 77.06201172 186.72314453 77.06201172 C187.72957204 78.72480499 188.7289986 80.39184656 189.72314453 82.06201172 C190.71314453 82.72201172 191.70314453 83.38201172 192.72314453 84.06201172 C193.40684903 85.38668918 194.07278639 86.72064804 194.72314453 88.06201172 C195.19751953 88.53638672 195.67189453 89.01076172 196.16064453 89.49951172 C198.12424227 91.46310946 199.31666353 93.67710916 200.72314453 96.06201172 C201.38314453 96.72201172 202.04314453 97.38201172 202.72314453 98.06201172 C205.72314453 101.6389348 205.72314453 101.6389348 205.72314453 105.06201172 C206.38314453 105.06201172 207.04314453 105.06201172 207.72314453 105.06201172 C207.84689453 105.86638672 207.97064453 106.67076172 208.09814453 107.49951172 C208.30439453 108.34513672 208.51064453 109.19076172 208.72314453 110.06201172 C209.38314453 110.39201172 210.04314453 110.72201172 210.72314453 111.06201172 C213.0031786 114.34526078 214.15832839 117.10829873 214.72314453 121.06201172 C215.38314453 121.06201172 216.04314453 121.06201172 216.72314453 121.06201172 C216.84431641 121.62791016 216.96548828 122.19380859 217.09033203 122.77685547 C217.25791016 123.51033203 217.42548828 124.24380859 217.59814453 124.99951172 C217.76056641 125.73041016 217.92298828 126.46130859 218.09033203 127.21435547 C218.55275976 129.26901466 218.55275976 129.26901466 220.72314453 130.06201172 C220.72314453 131.05201172 220.72314453 132.04201172 220.72314453 133.06201172 C221.38314453 133.39201172 222.04314453 133.72201172 222.72314453 134.06201172 C223.45223671 136.07569488 224.16416404 138.09670841 224.80517578 140.14013672 C225.6851256 142.94099828 226.61943866 145.71997866 227.56640625 148.4987793 C238.21801094 179.9348721 240.31067722 212.72753676 226.09814453 243.18701172 C225.70175781 244.04149902 225.30537109 244.89598633 224.89697266 245.77636719 C224.51734375 246.57445801 224.13771484 247.37254883 223.74658203 248.19482422 C223.40546387 248.91557129 223.0643457 249.63631836 222.71289062 250.37890625 C221.72314453 252.06201172 221.72314453 252.06201172 219.72314453 253.06201172 C219.39314453 254.05201172 219.06314453 255.04201172 218.72314453 256.06201172 C217.4365529 257.44050275 216.09401368 258.76730197 214.72314453 260.06201172 C214.02189453 260.78388672 213.32064453 261.50576172 212.59814453 262.24951172 C210.00485538 264.8266433 207.34234724 267.32720348 204.66064453 269.81201172 C203.82404297 270.59060547 202.98744141 271.36919922 202.12548828 272.17138672 C199.85502331 273.95822419 198.53977768 274.67171613 195.72314453 275.06201172 C195.72314453 276.05201172 195.72314453 277.04201172 195.72314453 278.06201172 C184.82700259 282.12797619 174.2204562 284.44211557 162.72314453 286.06201172 C162.72314453 285.40201172 162.72314453 284.74201172 162.72314453 284.06201172 C162.14306641 283.88025391 161.56298828 283.69849609 160.96533203 283.51123047 C156.3316716 282.02020112 152.02552098 280.37867596 147.72314453 278.06201172 C147.72314453 277.40201172 147.72314453 276.74201172 147.72314453 276.06201172 C148.52751953 275.93826172 149.33189453 275.81451172 150.16064453 275.68701172 C151.00626953 275.48076172 151.85189453 275.27451172 152.72314453 275.06201172 C153.05314453 274.40201172 153.38314453 273.74201172 153.72314453 273.06201172 C156.20705679 271.77570001 158.69286043 270.56224817 161.22314453 269.37451172 C169.75303611 265.23912193 177.01114281 260.81401405 182.72314453 253.06201172 C183.58939453 252.21638672 184.45564453 251.37076172 185.34814453 250.49951172 C187.46122202 248.33082692 188.4765171 246.74705541 189.72314453 244.06201172 C190.38314453 243.73201172 191.04314453 243.40201172 191.72314453 243.06201172 C192.85021159 240.95185218 192.85021159 240.95185218 193.84814453 238.49951172 C194.20134766 237.67322266 194.55455078 236.84693359 194.91845703 235.99560547 C195.18400391 235.35751953 195.44955078 234.71943359 195.72314453 234.06201172 C196.38314453 234.06201172 197.04314453 234.06201172 197.72314453 234.06201172 C197.82626953 233.03076172 197.92939453 231.99951172 198.03564453 230.93701172 C198.72314453 227.06201172 198.72314453 227.06201172 200.16064453 224.31201172 C204.06112821 216.19900567 204.05331967 206.97073804 203.97314453 198.12451172 C203.96855225 197.07489258 203.96395996 196.02527344 203.95922852 194.94384766 C203.87547535 187.80208723 203.43744111 181.01930294 201.72314453 174.06201172 C201.57852783 173.45494385 201.43391113 172.84787598 201.28491211 172.22241211 C200.18712073 168.00061466 198.72618368 163.88647635 197.34814453 159.74951172 C197.04392578 158.82460937 196.73970703 157.89970703 196.42626953 156.94677734 C195.08132413 152.90331968 193.71622184 148.920059 191.99658203 145.01904297 C190.72314453 142.06201172 190.72314453 142.06201172 190.72314453 140.06201172 C190.06314453 140.06201172 189.40314453 140.06201172 188.72314453 140.06201172 C188.62001953 139.46388672 188.51689453 138.86576172 188.41064453 138.24951172 C187.89059809 135.98228715 187.89059809 135.98228715 186.16064453 134.56201172 C184.72314453 133.06201172 184.72314453 133.06201172 184.72314453 129.06201172 C183.73314453 128.73201172 182.74314453 128.40201172 181.72314453 128.06201172 C180.80382851 126.22337968 179.89207866 124.3805538 179.02001953 122.51904297 C175.89989523 116.60772314 171.74152824 110.82758789 166.91064453 106.18701172 C164.62944 103.97098446 163.35135058 101.77568846 161.72314453 99.06201172 C159.12191306 96.24986959 156.38881086 93.76968794 153.41064453 91.37451172 C152.52376953 90.61138672 151.63689453 89.84826172 150.72314453 89.06201172 C150.72314453 88.40201172 150.72314453 87.74201172 150.72314453 87.06201172 C150.06314453 87.06201172 149.40314453 87.06201172 148.72314453 87.06201172 C147.5324278 85.90531546 146.34760047 84.74184062 145.19580078 83.54638672 C136.70362841 74.98663738 125.21171811 64.89153625 113.72314453 61.06201172 C113.72314453 60.40201172 113.72314453 59.74201172 113.72314453 59.06201172 C112.91876953 58.81451172 112.11439453 58.56701172 111.28564453 58.31201172 C99.23378283 54.08328831 99.23378283 54.08328831 97.72314453 51.06201172 C96.03585424 50.30195081 96.03585424 50.30195081 93.94580078 49.71044922 C90.19729583 48.53215758 86.48587621 47.28787015 82.78173828 45.97607422 C42.78041256 32.0435039 1.92105645 27.6708838 -39.52685547 37.43701172 C-40.43048828 37.64583984 -41.33412109 37.85466797 -42.26513672 38.06982422 C-48.06187283 39.43768713 -53.65323888 41.11028227 -59.27685547 43.06201172 C-60.38395874 43.41658447 -60.38395874 43.41658447 -61.51342773 43.77832031 C-66.99981753 45.53553548 -72.22013259 47.68355769 -77.46435547 50.06201172 C-78.23199219 50.40490234 -78.99962891 50.74779297 -79.79052734 51.10107422 C-87.57879087 54.25332958 -87.57879087 54.25332958 -94.27685547 59.06201172 C-96.28812605 60.13468936 -98.33959852 61.09153786 -100.40185547 62.06201172 C-102.44236698 63.03341549 -102.44236698 63.03341549 -104.27685547 65.06201172 C-105.26685547 65.06201172 -106.25685547 65.06201172 -107.27685547 65.06201172 C-107.27685547 65.72201172 -107.27685547 66.38201172 -107.27685547 67.06201172 C-111.66147085 70.06201172 -111.66147085 70.06201172 -114.27685547 70.06201172 C-114.77185547 71.54701172 -114.77185547 71.54701172 -115.27685547 73.06201172 C-116.76185547 73.55701172 -116.76185547 73.55701172 -118.27685547 74.06201172 C-118.60685547 74.72201172 -118.93685547 75.38201172 -119.27685547 76.06201172 C-120.6101888 76.72867839 -121.94352214 77.39534505 -123.27685547 78.06201172 C-123.60685547 78.72201172 -123.93685547 79.38201172 -124.27685547 80.06201172 C-125.76185547 80.55701172 -125.76185547 80.55701172 -127.27685547 81.06201172 C-128.44952061 82.50271461 -129.61965177 83.94560227 -130.77294922 85.40185547 C-132.38975075 87.18663638 -134.05403953 88.43535487 -136.02685547 89.81201172 C-141.63771556 93.84114363 -148.05584036 99.3989664 -150.27685547 106.06201172 C-151.26685547 106.72201172 -152.25685547 107.38201172 -153.27685547 108.06201172 C-153.77185547 109.54701172 -153.77185547 109.54701172 -154.27685547 111.06201172 C-155.94352214 112.72867839 -157.6101888 114.39534505 -159.27685547 116.06201172 C-159.27685547 116.72201172 -159.27685547 117.38201172 -159.27685547 118.06201172 C-159.93685547 118.06201172 -160.59685547 118.06201172 -161.27685547 118.06201172 C-161.42123047 118.68076172 -161.56560547 119.29951172 -161.71435547 119.93701172 C-162.27685547 122.06201172 -162.27685547 122.06201172 -163.27685547 124.06201172 C-163.93685547 124.06201172 -164.59685547 124.06201172 -165.27685547 124.06201172 C-165.54498047 124.74263672 -165.81310547 125.42326172 -166.08935547 126.12451172 C-167.43738853 129.45911981 -168.85221845 132.75944409 -170.27685547 136.06201172 C-170.93685547 136.06201172 -171.59685547 136.06201172 -172.27685547 136.06201172 C-172.52435547 136.84576172 -172.77185547 137.62951172 -173.02685547 138.43701172 C-174.06238284 141.44004109 -175.1370327 144.41012191 -176.27685547 147.37451172 C-176.60685547 148.23689453 -176.93685547 149.09927734 -177.27685547 149.98779297 C-178.27685547 152.06201172 -178.27685547 152.06201172 -180.27685547 153.06201172 C-181.09222519 155.19401489 -181.09222519 155.19401489 -181.71435547 157.81201172 C-182.09527344 159.29507813 -182.09527344 159.29507813 -182.48388672 160.80810547 C-185.18304022 171.8722281 -185.18304022 171.8722281 -187.27685547 183.06201172 C-187.46248047 184.17576172 -187.64810547 185.28951172 -187.83935547 186.43701172 C-189.15206575 197.75644789 -188.3778627 208.36305486 -186.03076172 219.44091797 C-185.27685547 223.06201172 -185.27685547 223.06201172 -184.80419922 226.96435547 C-184.63017578 227.98658203 -184.45615234 229.00880859 -184.27685547 230.06201172 C-183.61685547 230.39201172 -182.95685547 230.72201172 -182.27685547 231.06201172 C-181.31201172 232.76904297 -181.31201172 232.76904297 -180.33935547 234.87451172 C-178.88795246 237.89514381 -177.3311561 240.40854007 -175.27685547 243.06201172 C-174.69935547 244.17576172 -174.12185547 245.28951172 -173.52685547 246.43701172 C-171.55606782 249.97684954 -169.07827922 252.20560373 -165.94091797 254.72216797 C-163.9037633 256.36241222 -162.12497661 258.21389058 -160.27685547 260.06201172 C-157.09735079 262.75236183 -153.8781598 264.97704605 -150.27685547 267.06201172 C-149.28685547 267.72201172 -148.29685547 268.38201172 -147.27685547 269.06201172 C-147.27685547 269.72201172 -147.27685547 270.38201172 -147.27685547 271.06201172 C-146.53435547 271.20638672 -145.79185547 271.35076172 -145.02685547 271.49951172 C-142.75657808 271.96388664 -140.51926067 272.48064741 -138.27685547 273.06201172 C-138.27685547 273.72201172 -138.27685547 274.38201172 -138.27685547 275.06201172 C-136.29685547 275.39201172 -134.31685547 275.72201172 -132.27685547 276.06201172 C-136.73974644 281.24020926 -144.25050679 284.16171015 -150.79248047 285.62451172 C-161.34870812 286.1990003 -174.03236098 281.37179817 -182.27685547 275.06201172 C-182.99873047 274.54638672 -183.72060547 274.03076172 -184.46435547 273.49951172 C-185.92759842 272.33900869 -187.38449046 271.17050063 -188.83935547 269.99951172 C-191.31547708 267.97595395 -191.31547708 267.97595395 -194.27685547 266.06201172 C-194.27685547 265.40201172 -194.27685547 264.74201172 -194.27685547 264.06201172 C-195.26685547 263.73201172 -196.25685547 263.40201172 -197.27685547 263.06201172 C-198.30698824 261.41379928 -199.30800175 259.7469747 -200.27685547 258.06201172 C-200.93685547 257.73201172 -201.59685547 257.40201172 -202.27685547 257.06201172 C-202.94352214 255.72867839 -203.6101888 254.39534505 -204.27685547 253.06201172 C-204.77185547 252.58763672 -205.26685547 252.11326172 -205.77685547 251.62451172 C-208.18780983 249.11310092 -209.03210847 246.16337322 -209.77685547 242.81201172 C-209.94185547 242.23451172 -210.10685547 241.65701172 -210.27685547 241.06201172 C-210.93685547 240.73201172 -211.59685547 240.40201172 -212.27685547 240.06201172 C-213.27685547 237.98779297 -213.27685547 237.98779297 -214.27685547 235.37451172 C-214.77185547 234.10027344 -214.77185547 234.10027344 -215.27685547 232.80029297 C-220.0688152 219.67855949 -220.55669068 207.04299202 -220.40185547 193.24951172 C-220.39179444 191.67074142 -220.38267417 190.09196485 -220.37451172 188.51318359 C-220.35277111 184.69596718 -220.31841812 180.87906163 -220.27685547 177.06201172 C-219.61685547 177.06201172 -218.95685547 177.06201172 -218.27685547 177.06201172 C-218.23947266 176.14419922 -218.20208984 175.22638672 -218.16357422 174.28076172 C-217.53455122 162.53899917 -217.53455122 162.53899917 -215.22998047 157.31982422 C-213.87680726 154.11435653 -212.84688255 150.80734357 -211.77685547 147.49951172 C-210.17096876 142.55317478 -208.50400129 137.75915702 -206.27685547 133.06201172 C-205.61685547 132.73201172 -204.95685547 132.40201172 -204.27685547 132.06201172 C-203.75091797 130.29857422 -203.75091797 130.29857422 -203.21435547 128.49951172 C-201.43612478 122.73655466 -198.43125427 117.74317213 -195.41333008 112.55981445 C-193.77831033 109.74853128 -192.30862996 107.15733519 -191.27685547 104.06201172 C-189.94352214 102.72867839 -188.6101888 101.39534505 -187.27685547 100.06201172 C-186.78185547 98.57701172 -186.78185547 98.57701172 -186.27685547 97.06201172 C-185.61685547 96.40201172 -184.95685547 95.74201172 -184.27685547 95.06201172 C-183.84373047 94.29888672 -183.41060547 93.53576172 -182.96435547 92.74951172 C-181.0546047 89.70805679 -178.83200132 87.58812183 -176.27685547 85.06201172 C-174.35963239 83.01904669 -172.47661799 80.94514194 -170.58935547 78.87451172 C-165.90908831 73.76165781 -161.10527272 68.82622693 -156.14013672 63.98779297 C-154.21744265 62.19363483 -154.21744265 62.19363483 -153.27685547 60.06201172 C-151.62023786 59.04545091 -149.95160691 58.04841193 -148.27685547 57.06201172 C-146.50414032 55.73772008 -144.75396678 54.38275207 -143.02685547 52.99951172 C-142.15544922 52.30728516 -141.28404297 51.61505859 -140.38623047 50.90185547 C-138.20462672 49.2342963 -138.20462672 49.2342963 -137.27685547 47.06201172 C-135.65018999 46.13704507 -134.02118162 45.21427061 -132.35888672 44.35498047 C-130.01657176 42.90037212 -128.02172305 41.14805779 -125.92504883 39.3659668 C-123.1832399 37.19680646 -120.1974017 35.51489778 -117.15185547 33.81201172 C-116.54470703 33.46138672 -115.93755859 33.11076172 -115.31201172 32.74951172 C-112.35729143 31.07581395 -109.64638666 29.63198217 -106.27685547 29.06201172 C-106.27685547 28.40201172 -106.27685547 27.74201172 -106.27685547 27.06201172 C-103.37085286 25.80536194 -101.48080962 25.06201172 -98.27685547 25.06201172 C-98.27685547 24.40201172 -98.27685547 23.74201172 -98.27685547 23.06201172 C-97.69419922 22.83126953 -97.11154297 22.60052734 -96.51123047 22.36279297 C-90.78446012 20.08469093 -85.09583744 17.73212322 -79.42919922 15.30810547 C-72.25430602 12.47193331 -64.93038868 10.35532636 -57.46435547 8.43701172 C-56.63226563 8.22044922 -55.80017578 8.00388672 -54.94287109 7.78076172 C-52.72189299 7.20369925 -50.50022073 6.62980306 -48.27685547 6.06201172 C-47.30304932 5.80991943 -47.30304932 5.80991943 -46.30957031 5.55273438 C-31.00236213 1.85738385 -15.68128492 0.42709054 0 0 Z " fill="#010001" transform="translate(506.27685546875,67.93798828125)"/>
<path d="M0 0 C6.27 0 12.54 0 19 0 C19.12874704 44.97565934 19.25626936 89.951322 19.38218227 134.92698937 C19.39719483 140.28905414 19.41221736 145.65111887 19.42724609 151.01318359 C19.43023671 152.08025792 19.43322732 153.14733224 19.43630856 154.24674214 C19.48416733 171.31470969 19.53282686 188.38267486 19.58180541 205.45063923 C19.63239349 223.08600634 19.68206768 240.72137587 19.73096704 258.35674775 C19.75831456 268.21077345 19.78603353 278.06479777 19.81480408 287.91881943 C19.88331108 311.44422945 19.9433876 334.96963882 19.98909378 358.49510479 C19.9964505 362.26133929 20.00429588 366.02757236 20.01249313 369.79380512 C20.03569023 380.51356291 20.05549329 391.23331129 20.06649265 401.95308927 C20.07124296 406.55229237 20.07753342 411.15147913 20.08801365 415.75067306 C20.0975932 419.99844031 20.10244611 424.24618589 20.1035229 428.49396357 C20.10472744 430.05028778 20.10764711 431.60661173 20.11238134 433.16292921 C20.11855097 435.28289238 20.1185724 437.40276802 20.11699677 439.5227375 C20.11855758 440.70847835 20.1201184 441.89421919 20.12172651 443.11589158 C20 446 20 446 19 449 C12.73 449 6.46 449 0 449 C-0.33 342.08 -0.66 235.16 -1 125 C-16.18 124.67 -31.36 124.34 -47 124 C-46.98839844 130.20296875 -46.97679687 136.4059375 -46.96484375 142.796875 C-46.95255689 151.44791461 -46.94402983 160.09895422 -46.9375 168.75 C-46.93664398 169.87587776 -46.93578796 171.00175552 -46.93490601 172.16175079 C-46.91030431 208.90217534 -47.10346684 245.63673858 -47.5 282.375 C-47.51195782 283.48346786 -47.52391563 284.59193573 -47.53623581 285.73399353 C-47.6818365 299.15610641 -47.83704749 312.57808713 -48 326 C-53.61 326 -59.22 326 -65 326 C-65 259.34 -65 192.68 -65 124 C-80.84 124 -96.68 124 -113 124 C-113 118.06 -113 112.12 -113 106 C-76.37 106 -39.74 106 -2 106 C-1.30851433 102.54257163 -0.87148439 99.97170924 -0.84178162 96.56437683 C-0.8319928 95.70767395 -0.82220398 94.85097107 -0.81211853 93.9683075 C-0.80636307 93.04185928 -0.8006076 92.11541107 -0.79467773 91.16088867 C-0.78477814 90.17504791 -0.77487854 89.18920715 -0.76467896 88.17349243 C-0.73314383 84.92167546 -0.70833807 81.66984389 -0.68359375 78.41796875 C-0.66301733 76.16066615 -0.64202068 73.90336734 -0.62062073 71.64607239 C-0.56547114 65.70971757 -0.51603048 59.77332838 -0.46777344 53.83691406 C-0.41750647 47.7773127 -0.36184753 41.71776114 -0.30664062 35.65820312 C-0.19914604 23.77217641 -0.09818011 11.88610731 0 0 Z " fill="#010101" transform="translate(503,129)"/>
<path d="M0 0 C0.99 0.33 1.98 0.66 3 1 C4.40628858 2.40628858 5.8011558 3.82404597 7.1875 5.25 C9.86330936 7.86634693 12.63410743 10.22743424 15.546875 12.5703125 C17 14 17 14 18 17 C18.99 17.99 18.99 17.99 20 19 C20.165 19.680625 20.33 20.36125 20.5 21.0625 C20.665 21.701875 20.83 22.34125 21 23 C21.66 23.33 22.32 23.66 23 24 C23 24.99 23 25.98 23 27 C23.66 27.33 24.32 27.66 25 28 C25.59765625 29.9609375 25.59765625 29.9609375 26.0625 32.375 C26.58410686 35.02183151 27.14392083 37.4317625 28 40 C28.98750749 50.38781917 26.63664315 60.9909954 24 71 C23.34 71 22.68 71 22 71 C22 72.32 22 73.64 22 75 C21.34 75 20.68 75 20 75 C19.75894531 75.721875 19.51789063 76.44375 19.26953125 77.1875 C17.82453626 80.38871967 16.07488504 82.43205643 13.6875 85 C12.88570312 85.86367188 12.08390625 86.72734375 11.2578125 87.6171875 C10.51273438 88.40351563 9.76765625 89.18984375 9 90 C8.46117187 90.58007812 7.92234375 91.16015625 7.3671875 91.7578125 C6.29149442 92.88503579 5.1529178 93.95189291 4 95 C3.34 95 2.68 95 2 95 C1.505 96.485 1.505 96.485 1 98 C0.01 98.495 0.01 98.495 -1 99 C-0.27731765 102.2985139 -0.27731765 102.2985139 3.0625 103.6875 C4.031875 104.120625 5.00125 104.55375 6 105 C6 105.66 6 106.32 6 107 C6.56589844 107.25265625 7.13179687 107.5053125 7.71484375 107.765625 C14.10938222 111.21976886 19.1964808 116.30270414 22 123 C22.72896484 123.69416016 22.72896484 123.69416016 23.47265625 124.40234375 C25.27273279 126.28528827 25.80404454 127.77093416 26.5625 130.25 C26.79066406 130.97703125 27.01882813 131.7040625 27.25390625 132.453125 C27.50011719 133.29359375 27.74632812 134.1340625 28 135 C28.35578125 135.98097656 28.7115625 136.96195313 29.078125 137.97265625 C30.6660469 143.56546053 30.24813278 149.42738595 30.1875 155.1875 C30.1865332 156.9499707 30.1865332 156.9499707 30.18554688 158.74804688 C30.13695814 168.20125558 30.13695814 168.20125558 29 172 C28.34 172 27.68 172 27 172 C26.67 174.31 26.34 176.62 26 179 C25.34 179 24.68 179 24 179 C24 180.32 24 181.64 24 183 C23.34 183 22.68 183 22 183 C21.73445312 183.58136719 21.46890625 184.16273438 21.1953125 184.76171875 C16.08803885 194.32533902 5.87849898 202.7719245 -4 207 C-4.99 207 -5.98 207 -7 207 C-7.33 207.66 -7.66 208.32 -8 209 C-15.04614593 211.9215727 -22.47124329 212.15475474 -30 212.09765625 C-30.7211499 212.0962413 -31.4422998 212.09482635 -32.18530273 212.09336853 C-34.45691324 212.08783381 -36.72842 212.07529423 -39 212.0625 C-40.55338398 212.05747654 -42.10676952 212.05291512 -43.66015625 212.04882812 C-47.44017493 212.0387427 -51.21997327 212.01915554 -55 212 C-55 206.06 -55 200.12 -55 194 C-51.72642578 193.94392578 -51.72642578 193.94392578 -48.38671875 193.88671875 C-46.23517748 193.84029439 -44.08379599 193.78913775 -41.93237305 193.73754883 C-40.4555867 193.70462428 -38.97868431 193.67649527 -37.50170898 193.65356445 C-29.38787988 193.52424944 -21.81842894 193.13975001 -14.01489258 190.63208008 C-12 190 -12 190 -10 190 C-9.67 189.01 -9.34 188.02 -9 187 C-7.33927151 186.31867549 -5.672233 185.65257873 -4 185 C-3.34 184.01 -2.68 183.02 -2 182 C-1.01 181.34 -0.02 180.68 1 180 C3.09033745 177.49159506 4.62673667 174.95779795 6 172 C6.66 172 7.32 172 8 172 C12.28894449 158.06093042 12.68860972 145.78619505 5.796875 132.71875 C2.2389184 126.68373502 -1.9225957 122.51849723 -8 119 C-8.44859375 118.51917969 -8.8971875 118.03835938 -9.359375 117.54296875 C-11.32611809 115.6932937 -13.11536364 114.9214368 -15.625 113.9375 C-16.42164063 113.61652344 -17.21828125 113.29554688 -18.0390625 112.96484375 C-26.31224266 110.26896578 -33.87303714 109.73881794 -42.5625 109.875 C-44.21862305 109.88853516 -44.21862305 109.88853516 -45.90820312 109.90234375 C-48.6057017 109.92569872 -51.30273077 109.95844946 -54 110 C-55.9574125 105.5473876 -56.08021774 102.55832984 -55.625 97.6875 C-55.51414062 96.43324219 -55.40328125 95.17898438 -55.2890625 93.88671875 C-55.14597656 92.45779297 -55.14597656 92.45779297 -55 91 C-50.95834056 89.9211176 -47.19787876 89.96988313 -43.05786133 90.06567383 C-30.49452825 90.3501134 -19.66524555 89.24567131 -9 82 C-8.34 81.34 -7.68 80.68 -7 80 C-5.63875 79.01 -5.63875 79.01 -4.25 78 C2.48698214 72.38310291 6.56497047 63.53782273 8 55 C8.57341199 47.09965708 8.67196754 38.5705747 6 31 C5.01 30.505 5.01 30.505 4 30 C3.731875 29.4225 3.46375 28.845 3.1875 28.25 C1.19736407 24.47921614 -1.86792431 21.84905676 -5.25 19.3125 C-7 18 -7 18 -8 16 C-8.886875 15.855625 -9.77375 15.71125 -10.6875 15.5625 C-14 15 -14 15 -16.67822266 13.49682617 C-20.77239985 11.65194889 -24.02950086 11.52571281 -28.4609375 11.48828125 C-29.25150543 11.47033005 -30.04207336 11.45237885 -30.8565979 11.43388367 C-33.36267891 11.38003294 -35.86857227 11.34596719 -38.375 11.3125 C-40.08205722 11.27930452 -41.78908976 11.24481281 -43.49609375 11.20898438 C-47.6640857 11.12189805 -51.83124373 11.0616177 -56 11 C-56 5.06 -56 -0.88 -56 -7 C-35.72291759 -8.13028733 -18.90609658 -8.58806348 0 0 Z " fill="#010101" transform="translate(594,242)"/>
<path d="M0 0 C6.27 0 12.54 0 19 0 C19.80949237 4.8569542 20.14272529 9.28441761 20.12939453 14.16088867 C20.13114685 14.95673874 20.13289917 15.75258881 20.13470459 16.57255554 C20.13908504 19.18771584 20.13619941 21.80280784 20.1328125 24.41796875 C20.13348643 26.24066684 20.13445721 28.06336484 20.13571167 29.88606262 C20.13718331 33.69805765 20.13505048 37.51002919 20.13037109 41.32202148 C20.12466196 46.21138716 20.12796367 51.10069808 20.13394356 55.99006176 C20.1375532 59.75007034 20.13640893 63.51006588 20.13381577 67.27007484 C20.13314825 69.07342854 20.13396883 70.87678341 20.13629532 72.68013573 C20.13882975 75.1958875 20.13497058 77.71154983 20.12939453 80.22729492 C20.13141876 80.97384338 20.13344299 81.72039185 20.13552856 82.48956299 C20.12272679 85.60128562 19.9919515 88.02414551 19 91 C12.73 91 6.46 91 0 91 C0 60.97 0 30.94 0 0 Z " fill="#D8C78A" transform="translate(503,487)"/>
<path d="M0 0 C6.27 0 12.54 0 19 0 C19 118.14 19 236.28 19 358 C16.03 358 13.06 358 10 358 C10 357.67 10 357.34 10 357 C12.64 357 15.28 357 18 357 C18 239.52 18 122.04 18 1 C12.39 1 6.78 1 1 1 C1 35.98 1 70.96 1 107 C-36.62 107 -74.24 107 -113 107 C-113 106.67 -113 106.34 -113 106 C-76.37 106 -39.74 106 -2 106 C-1.30851433 102.54257163 -0.87148439 99.97170924 -0.84178162 96.56437683 C-0.8319928 95.70767395 -0.82220398 94.85097107 -0.81211853 93.9683075 C-0.80636307 93.04185928 -0.8006076 92.11541107 -0.79467773 91.16088867 C-0.78477814 90.17504791 -0.77487854 89.18920715 -0.76467896 88.17349243 C-0.73314383 84.92167546 -0.70833807 81.66984389 -0.68359375 78.41796875 C-0.66301733 76.16066615 -0.64202068 73.90336734 -0.62062073 71.64607239 C-0.56547114 65.70971757 -0.51603048 59.77332838 -0.46777344 53.83691406 C-0.41750647 47.7773127 -0.36184753 41.71776114 -0.30664062 35.65820312 C-0.19914604 23.77217641 -0.09818011 11.88610731 0 0 Z " fill="#151515" transform="translate(503,129)"/>
<path d="M0 0 C6.27 0 12.54 0 19 0 C19 9.24 19 18.48 19 28 C18.67 28 18.34 28 18 28 C18 19.09 18 10.18 18 1 C12.39 1 6.78 1 1 1 C1 35.98 1 70.96 1 107 C-36.62 107 -74.24 107 -113 107 C-113 106.67 -113 106.34 -113 106 C-76.37 106 -39.74 106 -2 106 C-1.30851433 102.54257163 -0.87148439 99.97170924 -0.84178162 96.56437683 C-0.8319928 95.70767395 -0.82220398 94.85097107 -0.81211853 93.9683075 C-0.80636307 93.04185928 -0.8006076 92.11541107 -0.79467773 91.16088867 C-0.78477814 90.17504791 -0.77487854 89.18920715 -0.76467896 88.17349243 C-0.73314383 84.92167546 -0.70833807 81.66984389 -0.68359375 78.41796875 C-0.66301733 76.16066615 -0.64202068 73.90336734 -0.62062073 71.64607239 C-0.56547114 65.70971757 -0.51603048 59.77332838 -0.46777344 53.83691406 C-0.41750647 47.7773127 -0.36184753 41.71776114 -0.30664062 35.65820312 C-0.19914604 23.77217641 -0.09818011 11.88610731 0 0 Z " fill="#1F1F22" transform="translate(503,129)"/>
<path d="" fill="#081A2E" transform="translate(0,0)"/>
<path d="" fill="#061B2C" transform="translate(0,0)"/>
<path d="" fill="#07192D" transform="translate(0,0)"/>
<path d="" fill="#051E32" transform="translate(0,0)"/>
<path d="" fill="#081D30" transform="translate(0,0)"/>
<path d="" fill="#151227" transform="translate(0,0)"/>
<path d="" fill="#181526" transform="translate(0,0)"/>
<path d="" fill="#141228" transform="translate(0,0)"/>
<path d="" fill="#000000" transform="translate(0,0)"/>
<path d="" fill="#000000" transform="translate(0,0)"/>
<path d="" fill="#000000" transform="translate(0,0)"/>
<path d="" fill="#091E2F" transform="translate(0,0)"/>
<path d="" fill="#000000" transform="translate(0,0)"/>
<path d="" fill="#434157" transform="translate(0,0)"/>
<path d="" fill="#051B29" transform="translate(0,0)"/>
<path d="" fill="#0B0B25" transform="translate(0,0)"/>
<path d="" fill="#000000" transform="translate(0,0)"/>
<path d="" fill="#000000" transform="translate(0,0)"/>
<path d="" fill="#082231" transform="translate(0,0)"/>
<path d="" fill="#000000" transform="translate(0,0)"/>
<path d="" fill="#000000" transform="translate(0,0)"/>
<path d="" fill="#000000" transform="translate(0,0)"/>
<path d="" fill="#373655" transform="translate(0,0)"/>
<path d="" fill="#000000" transform="translate(0,0)"/>
<path d="" fill="#161620" transform="translate(0,0)"/>
<path d="" fill="#000000" transform="translate(0,0)"/>
<path d="" fill="#000000" transform="translate(0,0)"/>
<path d="" fill="#000000" transform="translate(0,0)"/>
<path d="" fill="#000000" transform="translate(0,0)"/>
<path d="" fill="#0C0C24" transform="translate(0,0)"/>
<path d="" fill="#101028" transform="translate(0,0)"/>
<path d="" fill="#000000" transform="translate(0,0)"/>
<path d="" fill="#000000" transform="translate(0,0)"/>
<path d="" fill="#191828" transform="translate(0,0)"/>
<path d="" fill="#121327" transform="translate(0,0)"/>
<path d="" fill="#151225" transform="translate(0,0)"/>
<path d="" fill="#0A0718" transform="translate(0,0)"/>
<path d="" fill="#141122" transform="translate(0,0)"/>
<path d="" fill="#111224" transform="translate(0,0)"/>
<path d="" fill="#171626" transform="translate(0,0)"/>
<path d="" fill="#131220" transform="translate(0,0)"/>
<path d="" fill="#171928" transform="translate(0,0)"/>
<path d="" fill="#171928" transform="translate(0,0)"/>
<path d="" fill="#151726" transform="translate(0,0)"/>
<path d="" fill="#111224" transform="translate(0,0)"/>
<path d="" fill="#130F28" transform="translate(0,0)"/>
</svg>
